<?xml version="1.0" encoding="UTF-8"?>
<svg version="1.1" xmlns="http://www.w3.org/2000/svg" width="320" height="460">
<path d="M0 0 C1.01932617 0.19335938 2.03865234 0.38671875 3.08886719 0.5859375 C31.74509932 6.17067086 59.22223616 15.65512789 86.8125 25 C87.77808649 25.32679056 87.77808649 25.32679056 88.76317978 25.66018295 C93.07986482 27.12158787 97.39406696 28.59014142 101.70703125 30.0625 C103.39392563 30.63536491 103.39392563 30.63536491 105.11489868 31.21980286 C106.14021698 31.57136948 107.16553528 31.9229361 108.22192383 32.28515625 C109.12405106 32.59332275 110.02617828 32.90148926 110.9556427 33.21899414 C113 34 113 34 114 35 C114.10889411 36.4289927 114.14904679 37.86330194 114.16113281 39.29638672 C114.17059937 40.22026184 114.18006592 41.14413696 114.18981934 42.0960083 C114.19421021 43.11362244 114.19860107 44.13123657 114.203125 45.1796875 C114.21009399 46.2379071 114.21706299 47.29612671 114.22424316 48.38641357 C114.24188777 51.8826483 114.24798857 55.37872229 114.25 58.875 C114.25100708 60.0696991 114.25201416 61.26439819 114.25305176 62.49530029 C114.24000936 85.43955976 113.16223759 108.16241531 111 131 C110.92738953 131.77351807 110.85477905 132.54703613 110.77996826 133.34399414 C104.25094208 202.19953213 93.05446618 289.7178513 45 343 C44.34257812 343.78632813 43.68515625 344.57265625 43.0078125 345.3828125 C24.93692214 366.49861479 1.12139502 379.33330423 -24.82568359 388.25244141 C-26.7912816 388.92823987 -28.74964089 389.62500344 -30.70703125 390.32421875 C-32.33705078 390.87529297 -32.33705078 390.87529297 -34 391.4375 C-34.9075 391.74558594 -35.815 392.05367188 -36.75 392.37109375 C-45.58799813 394.08133137 -52.88032409 392.95458623 -61.125 389.5625 C-62.02879395 389.20269043 -62.93258789 388.84288086 -63.86376953 388.47216797 C-82.59499549 380.8340964 -99.77134755 370.32507089 -115 357 C-115.52335937 356.54367187 -116.04671875 356.08734375 -116.5859375 355.6171875 C-124.18132037 348.94894057 -130.78843069 342.00336815 -137 334 C-137.6290625 333.26007813 -138.258125 332.52015625 -138.90625 331.7578125 C-153.55195077 314.41106036 -164.12621572 293.41838342 -172.75 272.5625 C-173.18578369 271.51642578 -173.62156738 270.47035156 -174.07055664 269.39257812 C-180.52511708 253.36071671 -184.80983459 236.67934422 -188.4375 219.8125 C-188.71972916 218.51297394 -188.71972916 218.51297394 -189.00765991 217.18719482 C-195.81852051 185.71553482 -200.95665734 154.05627819 -204 122 C-204.11714355 120.84387207 -204.23428711 119.68774414 -204.35498047 118.49658203 C-207.08435537 90.78511292 -206.19073379 62.80691047 -206 35 C-112.51230773 3.25960891 -112.51230773 3.25960891 -71 -2 C-70.30495361 -2.0942627 -69.60990723 -2.18852539 -68.89379883 -2.28564453 C-46.53833365 -4.95673677 -22.06747979 -4.26066766 0 0 Z " fill="#365D2E" transform="translate(206,3)"/>
<path d="M0 0 C0.66 0 1.32 0 2 0 C11.29118597 23.69402765 18.05422102 51.80681847 8.5390625 76.578125 C8.03117188 77.70734375 7.52328125 78.8365625 7 80 C6.49210938 81.19109375 5.98421875 82.3821875 5.4609375 83.609375 C-2.13388151 100.09481153 -15.11410337 114.48607148 -29 126 C-29.93070312 126.80695313 -30.86140625 127.61390625 -31.8203125 128.4453125 C-38.24973088 134.00905742 -44.86565897 139.23615946 -51.6940918 144.30078125 C-68.07232348 156.45218356 -84.19202168 168.95748852 -99 183 C-99.56654297 183.53254395 -100.13308594 184.06508789 -100.71679688 184.61376953 C-109.61066048 193.02363006 -117.20065934 201.81830482 -124 212 C-124.64453125 212.94875 -125.2890625 213.8975 -125.953125 214.875 C-129.89823173 221.13030436 -132.6512686 227.75160497 -135.3125 234.625 C-135.65047607 235.49592285 -135.98845215 236.3668457 -136.33666992 237.26416016 C-138.51041369 243.09787411 -139.96353175 248.86338467 -141 255 C-141.66 255 -142.32 255 -143 255 C-144.23977798 217.89849592 -126.99984729 189.92851328 -103 163 C-101.26810984 161.19693627 -99.51118893 159.43796253 -97.7069397 157.70780945 C-96.01783761 156.0178467 -94.47989098 154.26274046 -92.93505859 152.44067383 C-88.46422415 147.30024842 -83.6341743 142.54660412 -78.7890625 137.76171875 C-77.81134324 136.79096948 -76.83400519 135.81983613 -75.85702515 134.8483429 C-71.75018709 130.76565702 -67.63768364 126.68871508 -63.52050781 122.61645508 C-60.98576213 120.10883419 -58.4561929 117.59608111 -55.92951584 115.0803318 C-54.52385608 113.68370831 -53.11256197 112.29276272 -51.70108032 110.90202332 C-46.46964294 105.69072554 -41.64023304 100.31645976 -37.03988647 94.53889465 C-34.92308112 91.9042648 -32.72206572 89.35859378 -30.5 86.8125 C-10.86937675 62.73591678 -2.45079085 30.38980656 0 0 Z " fill="#FAFAFA" transform="translate(234,42)"/>
<path d="M0 0 C2.86090622 2.86090622 4.04029597 6.39374797 5.59765625 10.06640625 C6.12331429 11.29268234 6.12331429 11.29268234 6.65959167 12.54373169 C7.80063298 15.21384492 8.93271605 17.88760535 10.0625 20.5625 C10.44716431 21.47125885 10.83182861 22.3800177 11.22814941 23.3163147 C17.30653913 37.70330952 23.31530026 52.08627325 28 67 C28.41693115 68.31991943 28.41693115 68.31991943 28.84228516 69.66650391 C33.6464276 85.4415182 37.65365568 105.22730067 29.81884766 120.54150391 C28.10427749 123.49391628 26.27234511 126.33017732 24.31201172 129.125 C23.12975751 130.81456314 22.02986968 132.56104461 20.94140625 134.3125 C3.92616258 161.48029031 -24.72039082 184.65362833 -56 193 C-59.97953669 193.45741801 -63.13869155 192.98598318 -67 192 C-68.09957031 191.77957031 -69.19914062 191.55914062 -70.33203125 191.33203125 C-96.20638524 185.46276884 -120.55617038 169.35082726 -135 147 C-138.40664879 141.08508027 -141.11479892 135.82007198 -142 129 C-139.52800251 131.27937431 -137.5495609 133.84371438 -135.5378418 136.53027344 C-123.14844453 153.0745226 -106.26992085 165.65987243 -86 171 C-85.29488281 171.20367187 -84.58976562 171.40734375 -83.86328125 171.6171875 C-65.27400869 176.22505472 -44.71465435 172.55628339 -28.1640625 163.4375 C-8.69489468 151.65783544 6.02969057 131.9421697 11.55761719 109.76269531 C16.12909934 88.9078728 11.71891253 68.41289298 7 48 C6.63237549 46.39970947 6.63237549 46.39970947 6.25732422 44.76708984 C5.38338593 40.969031 4.50770323 37.17138954 3.62548828 33.37524414 C1.09235067 22.31136227 -0.42591357 11.38135694 0 0 Z " fill="#FAFAFA" transform="translate(241,197)"/>
<path d="M0 0 C2.10448938 0.14109986 4.2085877 0.28804175 6.3125 0.4375 C7.48425781 0.51871094 8.65601563 0.59992188 9.86328125 0.68359375 C13 1 13 1 16 2 C17.08740234 3.60375977 17.08740234 3.60375977 18.0859375 5.69140625 C18.45710693 6.46339355 18.82827637 7.23538086 19.21069336 8.03076172 C19.59491455 8.86623535 19.97913574 9.70170898 20.375 10.5625 C20.77275635 11.41859863 21.1705127 12.27469727 21.58032227 13.15673828 C33.78026026 40.02496804 34.88653653 67.30038562 24.78173828 95.01171875 C22.3316002 101.24342536 19.22817277 107.14260603 16 113 C15.65984863 113.62229492 15.31969727 114.24458984 14.96923828 114.88574219 C4.42355579 133.9330984 -10.07965846 150.55483954 -24.7421875 166.52734375 C-26.65181151 168.61867939 -28.52331252 170.73258864 -30.375 172.875 C-35.44132887 178.71043422 -40.74282419 184.33709798 -46 190 C-46 186.45976759 -45.16494921 185.23795314 -43.359375 182.23046875 C-42.78928711 181.27060059 -42.21919922 180.31073242 -41.63183594 179.32177734 C-41.01083008 178.28746582 -40.38982422 177.2531543 -39.75 176.1875 C-38.45613034 173.99739374 -37.16450714 171.80595894 -35.875 169.61328125 C-35.22273437 168.5042041 -34.57046875 167.39512695 -33.8984375 166.25244141 C-17.34888877 137.8994208 -4.54691093 108.9879337 3 77 C3.18079102 76.28231445 3.36158203 75.56462891 3.54785156 74.82519531 C9.55075102 50.70618975 7.03528571 23.57771427 0 0 Z " fill="#FAFAFA" transform="translate(187,1)"/>
<path d="M0 0 C-0.76183594 0.81082031 -1.52367187 1.62164062 -2.30859375 2.45703125 C-8.82187333 9.42593312 -15.09769777 16.49871044 -21 24 C-21.75023437 24.93199219 -22.50046875 25.86398438 -23.2734375 26.82421875 C-40.10125884 48.33281633 -44.11089643 71.13625925 -44.625 97.875 C-44.66329992 99.54559057 -44.70235797 101.21616394 -44.7421875 102.88671875 C-44.8368371 106.92433487 -44.92132603 110.96204231 -45 115 C-48.23071173 112.03536649 -49.15099494 109.25219841 -50.5 105.0625 C-50.71430664 104.39734375 -50.92861328 103.7321875 -51.14941406 103.046875 C-58.39504318 80.18434694 -60.62522678 55.84372471 -50.25 33.5625 C-40.63886194 15.93403069 -25.93420138 5.97806713 -7.25 -0.25 C-4.22796323 -0.9473931 -2.82489857 -1.12995943 0 0 Z " fill="#F8F9F8" transform="translate(311,79)"/>
<path d="M0 0 C0.66 0 1.32 0 2 0 C2.03867188 1.70929688 2.03867188 1.70929688 2.078125 3.453125 C2.83830854 27.40018617 9.4053326 48.57552986 18.52734375 70.59765625 C18.83754456 71.34666199 19.14774536 72.09566772 19.46734619 72.86737061 C21.01512538 76.59394895 22.57756464 80.31345505 24.16357422 84.02392578 C29.37305491 96.29517265 32.51457399 107.20249443 32.25 120.6875 C32.24484375 121.75033203 32.2396875 122.81316406 32.234375 123.90820312 C32.17416403 130.00832681 31.78543058 135.95091773 31 142 C30.34 142 29.68 142 29 142 C28.81566406 141.13503906 28.63132812 140.27007812 28.44140625 139.37890625 C22.91542914 115.38388565 12.7524589 92.69680382 3.47631836 69.97241211 C3.0657016 68.96542267 2.65508484 67.95843323 2.23202515 66.92092896 C1.45438999 65.01551561 0.67496945 63.11082959 -0.10653687 61.20700073 C-8.38235861 40.94177758 -8.39027406 20.25759864 0 0 Z " fill="#F7F8F7" transform="translate(248,140)"/>
<path d="M0 0 C1.23082306 0.00022659 1.23082306 0.00022659 2.48651123 0.00045776 C3.80078094 0.01594162 3.80078094 0.01594162 5.14160156 0.03173828 C6.04597961 0.03456818 6.95035767 0.03739807 7.88214111 0.04031372 C10.76563851 0.05149296 13.64882332 0.07659345 16.53222656 0.10205078 C18.48925332 0.1120835 20.44628496 0.12120884 22.40332031 0.12939453 C27.19640919 0.15142493 31.9892649 0.18593934 36.78222656 0.22705078 C36.78222656 3.52705078 36.78222656 6.82705078 36.78222656 10.22705078 C23.91222656 10.55705078 11.04222656 10.88705078 -2.21777344 11.22705078 C-2.21777344 11.55705078 -2.21777344 11.88705078 -2.21777344 12.22705078 C17.08722656 12.72205078 17.08722656 12.72205078 36.78222656 13.22705078 C36.78222656 16.52705078 36.78222656 19.82705078 36.78222656 23.22705078 C23.91222656 23.55705078 11.04222656 23.88705078 -2.21777344 24.22705078 C-2.21777344 24.55705078 -2.21777344 24.88705078 -2.21777344 25.22705078 C17.08722656 25.72205078 17.08722656 25.72205078 36.78222656 26.22705078 C36.78222656 29.52705078 36.78222656 32.82705078 36.78222656 36.22705078 C31.19550462 36.30141329 25.60907317 36.35575332 20.02197266 36.3918457 C18.12283304 36.40689769 16.22372798 36.42734394 14.32470703 36.45336914 C11.58910575 36.4899107 8.85396556 36.50681316 6.11816406 36.52001953 C5.2741806 36.53550339 4.43019714 36.55098724 3.56063843 36.56694031 C-1.44174554 36.56835652 -4.92540408 36.08152067 -9.21777344 33.22705078 C-12.86688043 29.52780412 -12.63325273 26.26893562 -12.67675781 21.29931641 C-12.66966797 20.30609375 -12.66257813 19.31287109 -12.65527344 18.28955078 C-12.67525391 17.30019531 -12.69523438 16.31083984 -12.71582031 15.29150391 C-12.71285191 10.87748359 -12.68404742 8.0315015 -10.44042969 4.16064453 C-7.0785642 1.23599881 -4.46917236 -0.02758748 0 0 Z " fill="#365D2E" transform="translate(222.2177734375,423.77294921875)"/>
<path d="M0 0 C1.23082306 0.00022659 1.23082306 0.00022659 2.48651123 0.00045776 C3.80078094 0.01594162 3.80078094 0.01594162 5.14160156 0.03173828 C6.04597961 0.03456818 6.95035767 0.03739807 7.88214111 0.04031372 C10.76563851 0.05149296 13.64882332 0.07659345 16.53222656 0.10205078 C18.48925332 0.1120835 20.44628496 0.12120884 22.40332031 0.12939453 C27.19640919 0.15142493 31.9892649 0.18593934 36.78222656 0.22705078 C36.78222656 3.52705078 36.78222656 6.82705078 36.78222656 10.22705078 C23.91222656 10.22705078 11.04222656 10.22705078 -2.21777344 10.22705078 C-2.21777344 11.21705078 -2.21777344 12.20705078 -2.21777344 13.22705078 C-1.24952637 13.20610352 -0.2812793 13.18515625 0.71630859 13.16357422 C4.32797301 13.09086566 7.93957347 13.04514022 11.55175781 13.00732422 C13.111439 12.98727856 14.67104569 12.96003421 16.23046875 12.92529297 C18.4796797 12.87645953 20.72789246 12.85401264 22.97753906 12.83642578 C24.01383957 12.80545807 24.01383957 12.80545807 25.07107544 12.77386475 C30.10601897 12.77156074 32.89304866 14.10021314 36.78222656 17.22705078 C39.36867121 20.63645508 39.14725771 24.06569568 38.78222656 28.22705078 C37.42179238 31.55255656 36.28351508 32.90433598 33.26220703 34.84936523 C28.77064252 36.62752565 25.00799376 36.60550692 20.22753906 36.52001953 C19.32599091 36.51577469 18.42444275 36.51152985 17.49557495 36.50715637 C14.63248091 36.49044136 11.77010578 36.4528027 8.90722656 36.41455078 C6.9593201 36.39949466 5.01140255 36.38580788 3.06347656 36.37353516 C-1.69721466 36.34056137 -6.4573724 36.28882891 -11.21777344 36.22705078 C-11.21777344 32.92705078 -11.21777344 29.62705078 -11.21777344 26.22705078 C1.98222656 26.22705078 15.18222656 26.22705078 28.78222656 26.22705078 C28.78222656 25.23705078 28.78222656 24.24705078 28.78222656 23.22705078 C27.81397949 23.24799805 26.84573242 23.26894531 25.84814453 23.29052734 C22.23648011 23.3632359 18.62487965 23.40896134 15.01269531 23.44677734 C13.45301412 23.466823 11.89340744 23.49406735 10.33398438 23.52880859 C8.08477342 23.57764204 5.83656066 23.60008893 3.58691406 23.61767578 C2.55061356 23.64864349 2.55061356 23.64864349 1.49337769 23.68023682 C-3.54565821 23.68254269 -6.3513025 22.39840169 -10.21777344 19.22705078 C-12.69019332 15.51842095 -12.88446039 12.52799463 -12.21777344 8.22705078 C-9.29638492 2.59294435 -6.39596479 -0.03948126 0 0 Z " fill="#365D2E" transform="translate(273.2177734375,423.77294921875)"/>
<path d="M0 0 C2.23654438 -0.00970091 4.47216746 -0.04073334 6.70849609 -0.07226562 C8.13687607 -0.07879678 9.5652626 -0.08404681 10.99365234 -0.08789062 C12.28899902 -0.09723633 13.5843457 -0.10658203 14.91894531 -0.11621094 C19.81377232 0.3884104 23.23810206 2.47419903 26.37646484 6.24023438 C27.70320647 10.22045924 27.63897848 13.88387198 27.68896484 18.05273438 C27.71796875 18.84744141 27.74697266 19.64214844 27.77685547 20.4609375 C27.83505391 25.87339277 27.07875614 29.02075758 23.37646484 33.24023438 C19.25815921 36.32654918 16.15514665 36.62524037 11.06396484 36.63867188 C10.37262451 36.64154205 9.68128418 36.64441223 8.96899414 36.64736938 C7.51333798 36.64940277 6.05765404 36.64392376 4.60205078 36.63134766 C2.38300059 36.61528169 0.16577137 36.63121899 -2.05322266 36.65039062 C-3.47249748 36.64840806 -4.89177118 36.64456411 -6.31103516 36.63867188 C-7.59365234 36.63528809 -8.87626953 36.6319043 -10.19775391 36.62841797 C-15.06066691 36.07738949 -18.50011675 33.98833646 -21.62353516 30.24023438 C-22.95723557 26.23913315 -22.8468899 22.55520035 -22.87353516 18.36523438 C-22.89416016 17.56214844 -22.91478516 16.7590625 -22.93603516 15.93164062 C-22.97403563 10.16506868 -21.9365224 6.93871949 -18.12353516 2.49023438 C-13.43350928 -1.41812052 -5.79824136 0.01524182 0 0 Z M-12.62353516 10.24023438 C-12.62353516 15.52023437 -12.62353516 20.80023438 -12.62353516 26.24023438 C-2.72353516 26.24023438 7.17646484 26.24023438 17.37646484 26.24023438 C17.37646484 20.96023438 17.37646484 15.68023437 17.37646484 10.24023438 C7.47646484 10.24023438 -2.42353516 10.24023438 -12.62353516 10.24023438 Z " fill="#365D2E" transform="translate(83.62353515625,423.759765625)"/>
<path d="M0 0 C5.72962199 -0.0690008 11.45779304 -0.12869546 17.1875 -0.16479492 C19.13514094 -0.17984899 21.08274816 -0.2002968 23.03027344 -0.22631836 C25.83537128 -0.26285053 28.64001954 -0.27976033 31.4453125 -0.29296875 C32.74409836 -0.31619453 32.74409836 -0.31619453 34.06912231 -0.33988953 C39.14551839 -0.34129162 42.59461249 0.19125604 47 3 C50.59338389 6.83294281 50.61754242 11.23124249 50.48828125 16.265625 C49.71598454 20.59048659 47.52185447 23.43130797 44 26 C40.37556388 27.23901941 36.84890788 27.11376656 33.046875 27.09765625 C32.38665344 27.0962413 31.72643188 27.09482635 31.04620361 27.09336853 C28.94742206 27.08779245 26.84874905 27.07524447 24.75 27.0625 C23.32291821 27.0574819 21.89583475 27.05291954 20.46875 27.04882812 C16.97913168 27.03783088 13.48957644 27.0205828 10 27 C10 29.97 10 32.94 10 36 C6.7 36 3.4 36 0 36 C0 24.12 0 12.24 0 0 Z M10 10 C10 12.31 10 14.62 10 17 C19.9 17 29.8 17 40 17 C40 14.69 40 12.38 40 10 C30.1 10 20.2 10 10 10 Z " fill="#365D2D" transform="translate(9,424)"/>
<path d="M0 0 C0.33 0 0.66 0 1 0 C2.04691763 11.25436454 -3.17298987 22.80342152 -9.96875 31.52734375 C-23.10144368 46.90276857 -42.38055519 53.98323764 -60.6875 61.375 C-62.21052039 61.99551989 -63.73330775 62.61661206 -65.25585938 63.23828125 C-70.82959347 65.51127482 -76.40927551 67.76906338 -82 70 C-82 69.34 -82 68.68 -82 68 C-78.52994128 64.77333217 -74.72348711 61.92825584 -71 59 C-69.53626953 57.83210938 -69.53626953 57.83210938 -68.04296875 56.640625 C-61.69925837 51.6568628 -55.18012966 47.02267468 -48.5 42.5 C-37.5230621 35.05956964 -27.1342932 27.30252442 -17.4375 18.2265625 C-15 16 -15 16 -12.484375 14.06640625 C-9.66639551 11.72252079 -7.53051169 9.17844506 -5.25 6.3125 C-1 1 -1 1 0 0 Z " fill="#F9F9F8" transform="translate(231,151)"/>
<path d="M0 0 C2.18544856 1.77163897 4.01692994 3.42746615 5.93359375 5.4453125 C6.71779442 6.24012527 6.71779442 6.24012527 7.51783752 7.05099487 C9.16993242 8.73087363 10.80369545 10.42734672 12.4375 12.125 C13.56067824 13.27328171 14.68501672 14.42042976 15.81054688 15.56640625 C18.55635812 18.36280356 21.2766625 21.18099491 24 24 C24.33 15.75 24.66 7.5 25 -1 C28.3 -1 31.6 -1 35 -1 C35.08735463 3.54154478 35.14051247 8.08287232 35.1875 12.625 C35.21263672 13.91019531 35.23777344 15.19539063 35.26367188 16.51953125 C35.27333984 17.76347656 35.28300781 19.00742187 35.29296875 20.2890625 C35.3086792 21.43068848 35.32438965 22.57231445 35.34057617 23.74853516 C34.95072068 27.47046733 33.95828924 29.82583569 32 33 C28.8677347 35.08817686 26.90161842 35.60818603 23.15551758 35.50048828 C20.49997497 34.8838995 19.32491604 33.89465954 17.32421875 32.0546875 C16.63223389 31.42022705 15.94024902 30.7857666 15.22729492 30.13208008 C11.25881944 26.33325334 7.36411848 22.46719891 3.5 18.5625 C0.695 15.736875 -2.11 12.91125 -5 10 C-5.33 18.25 -5.66 26.5 -6 35 C-8.97 35 -11.94 35 -15 35 C-15.12400035 30.67677539 -15.21452256 26.35450398 -15.2746582 22.0300293 C-15.29973644 20.56044475 -15.33380856 19.09098413 -15.37719727 17.62182617 C-15.43815499 15.50408319 -15.46627316 13.38799424 -15.48828125 11.26953125 C-15.51446533 9.99698486 -15.54064941 8.72443848 -15.56762695 7.41333008 C-14.85012446 3.09874841 -13.38004836 1.68186323 -10 -1 C-5.91660823 -2.36113059 -3.99689043 -1.52224646 0 0 Z " fill="#355C2E" transform="translate(172,425)"/>
<path d="M0 0 C3.3 0 6.6 0 10 0 C10 8.58 10 17.16 10 26 C19.9 26 29.8 26 40 26 C40 29.3 40 32.6 40 36 C35.6950223 36.07451364 31.39039266 36.12877223 27.08496094 36.16479492 C25.62232925 36.17982196 24.15974218 36.20024955 22.69726562 36.22631836 C20.5871272 36.26297267 18.47758774 36.27978676 16.3671875 36.29296875 C14.46622314 36.31653442 14.46622314 36.31653442 12.52685547 36.34057617 C8.59500299 35.96089085 6.29398524 35.16718868 3 33 C-0.10269442 29.19965831 -0.35903745 26.2097339 -0.29296875 21.38671875 C-0.28330078 20.13955078 -0.27363281 18.89238281 -0.26367188 17.60742188 C-0.2259668 15.66706055 -0.2259668 15.66706055 -0.1875 13.6875 C-0.17396484 12.37458984 -0.16042969 11.06167969 -0.14648438 9.70898438 C-0.11117443 6.47223923 -0.0618528 3.23632895 0 0 Z " fill="#365D2E" transform="translate(114,424)"/>
<path d="M0 0 C1.32 0 2.64 0 4 0 C5.03479213 2.41151557 6.0529372 4.82794469 7.0625 7.25 C7.35705078 7.93191406 7.65160156 8.61382812 7.95507812 9.31640625 C9.46851327 12.98426083 10.39114637 15.23794481 9 19 C8.34 19.66 7.68 20.32 7 21 C5.82807565 17.87694627 4.66336124 14.75125261 3.5 11.625 C3.16613281 10.73554688 2.83226562 9.84609375 2.48828125 8.9296875 C2.01455078 7.65351563 2.01455078 7.65351563 1.53125 6.3515625 C1.09135742 5.17327881 1.09135742 5.17327881 0.64257812 3.97119141 C0 2 0 2 0 0 Z " fill="#285821" transform="translate(261,242)"/>
<path d="M0 0 C0.66 0.33 1.32 0.66 2 1 C-0.77041558 5.01710259 -3.33251256 7.44417085 -8 9 C-8 8.34 -8 7.68 -8 7 C-6.25 5.2734375 -6.25 5.2734375 -4 3.375 C-3.2575 2.74335938 -2.515 2.11171875 -1.75 1.4609375 C-1.1725 0.97882813 -0.595 0.49671875 0 0 Z " fill="#E6E9E5" transform="translate(157,212)"/>
</svg>
