<?xml version="1.0" encoding="UTF-8"?>
<svg version="1.1" xmlns="http://www.w3.org/2000/svg" width="530" height="532">
<path d="M0 0 C8.95684524 6.18964522 18.06431695 12.13518107 27.24829102 17.98168945 C28.0471875 18.49038574 28.84608398 18.99908203 29.66918945 19.52319336 C38.9271129 25.38477496 48.08504613 30.81664612 58.24829102 34.98168945 C59.17899414 35.36969727 60.10969727 35.75770508 61.06860352 36.1574707 C78.47212465 42.97508938 95.06444416 42.19444812 112.31079102 35.35668945 C135.64979586 24.86579382 153.78134552 2.36155546 168.24829102 -18.01831055 C172.32703592 -16.65872891 172.70710042 -14.88837634 174.74829102 -11.14331055 C175.46355067 -9.85115295 176.17974566 -8.55951278 176.89672852 -7.26831055 C177.27796875 -6.57608398 177.65920898 -5.88385742 178.05200195 -5.1706543 C180.11059362 -1.46686978 182.24446312 2.1929724 184.37329102 5.85668945 C184.82808838 6.64180908 185.28288574 7.42692871 185.75146484 8.23583984 C190.23597765 15.97485827 194.7496419 23.69685243 199.26196289 31.41967773 C202.9395494 37.71962265 206.5759286 44.03900622 210.15454102 50.39575195 C211.85148319 53.35501132 213.65245508 56.24166654 215.46704102 59.13012695 C216.30984619 60.48702637 216.30984619 60.48702637 217.16967773 61.87133789 C218.28799947 63.66693501 219.41947604 65.45441906 220.56518555 67.23266602 C221.32484619 68.45808105 221.32484619 68.45808105 222.09985352 69.70825195 C222.56214355 70.43608887 223.02443359 71.16392578 223.50073242 71.91381836 C224.24829102 73.98168945 224.24829102 73.98168945 223.53417969 76.09643555 C221.67979768 78.81516307 219.39339184 80.80011146 216.93579102 82.98168945 C215.9909082 83.82731445 215.04602539 84.67293945 214.07250977 85.54418945 C206.61367563 91.98168945 206.61367563 91.98168945 204.24829102 91.98168945 C204.24829102 92.64168945 204.24829102 93.30168945 204.24829102 93.98168945 C202.4499559 95.52751861 200.65015097 96.94723375 198.74829102 98.35668945 C198.16587646 98.79513184 197.58346191 99.23357422 196.98339844 99.68530273 C195.72509846 100.63164536 194.46484535 101.57539532 193.20288086 102.5168457 C191.27647718 103.96056568 189.364497 105.421536 187.45532227 106.88793945 C180.35044922 112.32007416 173.12570158 117.51663942 165.68579102 122.48168945 C164.94820557 122.9739502 164.21062012 123.46621094 163.45068359 123.97338867 C159.11825607 126.83207049 154.77769439 129.39345895 150.24829102 131.98168945 C150.24829102 230.32168945 150.24829102 328.66168945 150.24829102 429.98168945 C66.75829102 429.98168945 -16.73170898 429.98168945 -102.75170898 429.98168945 C-103.08170898 312.83168945 -103.41170898 195.68168945 -103.75170898 74.98168945 C-115.30544615 69.54463667 -124.59419981 65.46081287 -136.75170898 62.98168945 C-137.55995117 62.7909082 -138.36819336 62.60012695 -139.20092773 62.40356445 C-173.79079623 56.68272862 -211.08457749 75.7583307 -239.09643555 94.05493164 C-240.75170898 94.98168945 -240.75170898 94.98168945 -242.75170898 94.98168945 C-243.04561523 94.43125977 -243.33952148 93.88083008 -243.64233398 93.3137207 C-248.64971976 84.03279016 -253.9184373 74.90234221 -259.16381836 65.75463867 C-260.68131608 63.10461729 -262.19410624 60.45198122 -263.70483398 57.7980957 C-269.06284704 48.3899734 -274.47343463 39.01515663 -279.93920898 29.66918945 C-281.67389569 26.69448861 -283.40752744 23.71917734 -285.14038086 20.7434082 C-286.17766517 18.96556577 -287.21780579 17.18938519 -288.26147461 15.4152832 C-289.58014288 13.17190565 -290.8863729 10.92178596 -292.18920898 8.66918945 C-292.57294678 8.02361084 -292.95668457 7.37803223 -293.35205078 6.71289062 C-294.23099047 5.17847762 -295.00275053 3.58356943 -295.75170898 1.98168945 C-294.51806127 -1.71925369 -293.6363813 -1.92892315 -290.28295898 -3.7331543 C-289.33243652 -4.24837646 -288.38191406 -4.76359863 -287.40258789 -5.29443359 C-286.36279785 -5.84268799 -285.32300781 -6.39094238 -284.25170898 -6.95581055 C-283.17453613 -7.52920166 -282.09736328 -8.10259277 -280.98754883 -8.69335938 C-187.18433613 -58.20552042 -94.42132667 -64.6609614 0 0 Z " fill="#10418B" transform="translate(301.751708984375,102.018310546875)"/>
<path d="M0 0 C0.99 0.33 1.98 0.66 3 1 C3 99.01 3 197.02 3 298 C-41.55 298 -86.1 298 -132 298 C-132 201.64 -132 105.28 -132 6 C-128.98521995 7.20591202 -126.09122762 8.38993599 -123.171875 9.76953125 C-115.51773165 13.3231475 -107.92427331 16.57201737 -99.8125 18.9375 C-99.1309082 19.13641846 -98.44931641 19.33533691 -97.74707031 19.5402832 C-66.32489861 28.27254351 -32.68851882 18.14473086 -5 3 C-3.63681641 2.11054688 -3.63681641 2.11054688 -2.24609375 1.203125 C-1.50488281 0.80609375 -0.76367188 0.4090625 0 0 Z " fill="#E5922F" transform="translate(449,234)"/>
<path d="M0 0 C14.0676363 10.64752289 22.99439318 26.35355049 25.78125 43.671875 C27.95733296 62.50992648 22.6686297 79.72757432 11.1796875 94.68359375 C-0.79154953 108.55723667 -16.23683452 116.63257407 -34.39453125 118.875 C-52.76383536 120.19457373 -70.39282762 113.28133089 -84.2578125 101.49609375 C-87.08613399 98.91169321 -89.64431235 96.2944273 -91.8203125 93.12109375 C-91.8203125 92.46109375 -91.8203125 91.80109375 -91.8203125 91.12109375 C-92.4803125 91.12109375 -93.1403125 91.12109375 -93.8203125 91.12109375 C-98.70206586 81.98375017 -102.98169689 73.42341924 -104.8203125 63.12109375 C-105.00722656 62.20585938 -105.19414062 61.290625 -105.38671875 60.34765625 C-107.43024514 45.1408743 -103.14205925 28.89436312 -94.8203125 16.12109375 C-70.93504336 -14.84162524 -32.61261859 -21.72668911 0 0 Z " fill="#F9BC16" transform="translate(425.8203125,14.87890625)"/>
<path d="M0 0 C0.99 1.32 1.98 2.64 3 4 C3.639375 3.814375 4.27875 3.62875 4.9375 3.4375 C5.618125 3.293125 6.29875 3.14875 7 3 C7.33 3.33 7.66 3.66 8 4 C7.97676113 6.01121889 7.94754339 8.02258578 7.88476562 10.03295898 C7.56525816 20.08904911 7.56525816 20.08904911 11.125 29.37109375 C12 31 12 31 12 34 C8.34683329 32.75023244 7.21934164 32.32901247 5 29 C3.68 29 2.36 29 1 29 C1.42410156 29.53367187 1.84820312 30.06734375 2.28515625 30.6171875 C6.21322605 35.60713111 9.93460497 40.69156195 13.51953125 45.93359375 C14.97496729 48.08362675 14.97496729 48.08362675 17 50 C17 50.99 17 51.98 17 53 C18.32 53 19.64 53 21 53 C21 53.66 21 54.32 21 55 C26.94 55.99 32.88 56.98 39 58 C39 58.66 39 59.32 39 60 C39.74765625 59.97679687 40.4953125 59.95359375 41.265625 59.9296875 C42.25046875 59.91164062 43.2353125 59.89359375 44.25 59.875 C45.22453125 59.85179687 46.1990625 59.82859375 47.203125 59.8046875 C50.0196498 60.00137219 51.60949036 60.55431084 54 62 C54 61.34 54 60.68 54 60 C55.65 60 57.3 60 59 60 C59 60.99 59 61.98 59 63 C60.65 63 62.3 63 64 63 C64 61.35 64 59.7 64 58 C64.99 58 65.98 58 67 58 C67 57.01 67 56.02 67 55 C65.02 55.33 63.04 55.66 61 56 C60.67 57.32 60.34 58.64 60 60 C59.505 58.02 59.505 58.02 59 56 C57.02 55.505 57.02 55.505 55 55 C55.33 54.01 55.66 53.02 56 52 C56.99 52 57.98 52 59 52 C58.01 48.04 58.01 48.04 57 44 C59.31 44.33 61.62 44.66 64 45 C63.505 41.535 63.505 41.535 63 38 C64.32 37.67 65.64 37.34 67 37 C67.50615298 38.26839526 68.00469099 39.53983102 68.5 40.8125 C68.7784375 41.52019531 69.056875 42.22789063 69.34375 42.95703125 C70 45 70 45 70 48 C71.98 48 73.96 48 76 48 C75.67 47.01 75.34 46.02 75 45 C75.495 44.01 75.495 44.01 76 43 C77.485 43.495 77.485 43.495 79 44 C79 45.32 79 46.64 79 48 C79.66 47.9175 80.32 47.835 81 47.75 C85.21243694 48.10103641 88.34710677 49.96960773 92 52 C92 53.32 92 54.64 92 56 C91.34 56 90.68 56 90 56 C90 56.66 90 57.32 90 58 C92.97 58 95.94 58 99 58 C99 57.34 99 56.68 99 56 C104.75 54.875 104.75 54.875 107 56 C108.50173814 60.2906804 107.85111302 62.86800121 106.0625 66.875 C105.38963646 68.25722137 104.706847 69.63484485 104 71 C102.68 71 101.36 71 100 71 C100 69.68 100 68.36 100 67 C99.34 67 98.68 67 98 67 C98.061875 67.886875 98.12375 68.77375 98.1875 69.6875 C97.98048018 73.34485017 97.083926 75.04777151 95 78 C90.00088076 77.52389341 87.02167317 75.96837781 83 73 C83.50603992 70.83125748 83.99983813 69.00032373 85 67 C81.7 67 78.4 67 75 67 C74.67 68.98 74.34 70.96 74 73 C70.7 72.67 67.4 72.34 64 72 C63.505 73.98 63.505 73.98 63 76 C62.34 76 61.68 76 61 76 C61 76.66 61 77.32 61 78 C60.01 78 59.02 78 58 78 C57.814375 78.598125 57.62875 79.19625 57.4375 79.8125 C55.27614168 83.10152353 52.65230553 83.72169307 49 85 C47.01178687 85.39764263 45.01267638 85.75455166 43 86 C43 86.66 43 87.32 43 88 C42.34 88 41.68 88 41 88 C41.495 93.94 41.495 93.94 42 100 C27.01900343 98.66835586 12.2414377 90.43321036 2.5078125 79.09765625 C-1.65384061 73.68750721 -5.41828271 68.32820936 -8 62 C-8.36996094 61.24847656 -8.73992187 60.49695313 -9.12109375 59.72265625 C-14.44906108 47.16782667 -14.21788431 29.86627867 -9.875 17.0625 C-4.40625 4.40625 -4.40625 4.40625 0 0 Z " fill="#F9BC16" transform="translate(336,30)"/>
<path d="M0 0 C14.0676363 10.64752289 22.99439318 26.35355049 25.78125 43.671875 C27.95733296 62.50992648 22.6686297 79.72757432 11.1796875 94.68359375 C-0.79154953 108.55723667 -16.23683452 116.63257407 -34.39453125 118.875 C-52.76383536 120.19457373 -70.39282762 113.28133089 -84.2578125 101.49609375 C-87.08613399 98.91169321 -89.64431235 96.2944273 -91.8203125 93.12109375 C-91.8203125 92.46109375 -91.8203125 91.80109375 -91.8203125 91.12109375 C-92.4803125 91.12109375 -93.1403125 91.12109375 -93.8203125 91.12109375 C-98.70206586 81.98375017 -102.98169689 73.42341924 -104.8203125 63.12109375 C-105.00722656 62.20585938 -105.19414062 61.290625 -105.38671875 60.34765625 C-107.43024514 45.1408743 -103.14205925 28.89436312 -94.8203125 16.12109375 C-70.93504336 -14.84162524 -32.61261859 -21.72668911 0 0 Z M-36.8203125 -9.87890625 C-36.7378125 -9.17765625 -36.6553125 -8.47640625 -36.5703125 -7.75390625 C-36.91339919 -3.80840934 -38.3441667 -1.94150763 -40.8203125 1.12109375 C-43.88291388 3.59723955 -45.74981559 5.02800706 -49.6953125 5.37109375 C-50.3965625 5.28859375 -51.0978125 5.20609375 -51.8203125 5.12109375 C-51.8203125 5.78109375 -51.8203125 6.44109375 -51.8203125 7.12109375 C-52.92439453 7.14236328 -52.92439453 7.14236328 -54.05078125 7.1640625 C-60.47417451 7.44426141 -60.47417451 7.44426141 -66.0078125 10.49609375 C-68.10440786 13.00088386 -68.10440786 13.00088386 -67.8203125 16.12109375 C-67.1603125 16.12109375 -66.5003125 16.12109375 -65.8203125 16.12109375 C-65.7171875 16.76046875 -65.6140625 17.39984375 -65.5078125 18.05859375 C-65.2809375 18.73921875 -65.0540625 19.41984375 -64.8203125 20.12109375 C-63.8303125 20.45109375 -62.8403125 20.78109375 -61.8203125 21.12109375 C-61.8203125 24.09109375 -61.8203125 27.06109375 -61.8203125 30.12109375 C-62.6246875 30.24484375 -63.4290625 30.36859375 -64.2578125 30.49609375 C-65.1034375 30.70234375 -65.9490625 30.90859375 -66.8203125 31.12109375 C-67.3153125 32.11109375 -67.3153125 32.11109375 -67.8203125 33.12109375 C-71.6953125 30.49609375 -71.6953125 30.49609375 -72.8203125 27.12109375 C-74.1403125 27.12109375 -75.4603125 27.12109375 -76.8203125 27.12109375 C-76.8203125 26.46109375 -76.8203125 25.80109375 -76.8203125 25.12109375 C-78.1403125 25.12109375 -79.4603125 25.12109375 -80.8203125 25.12109375 C-81.4803125 22.81109375 -82.1403125 20.50109375 -82.8203125 18.12109375 C-84.4703125 18.45109375 -86.1203125 18.78109375 -87.8203125 19.12109375 C-88.4803125 17.80109375 -89.1403125 16.48109375 -89.8203125 15.12109375 C-101.29908572 30.38667875 -103.37823267 46.54081558 -101.8203125 65.12109375 C-99.93434499 75.93318091 -94.81871504 84.77005878 -87.8203125 93.12109375 C-87.0571875 94.17296875 -86.2940625 95.22484375 -85.5078125 96.30859375 C-76.5453366 105.68792899 -64.50444435 112.38399161 -51.8203125 115.12109375 C-50.5003125 115.12109375 -49.1803125 115.12109375 -47.8203125 115.12109375 C-48.1503125 111.16109375 -48.4803125 107.20109375 -48.8203125 103.12109375 C-48.1603125 103.12109375 -47.5003125 103.12109375 -46.8203125 103.12109375 C-46.8203125 102.46109375 -46.8203125 101.80109375 -46.8203125 101.12109375 C-45.98886719 100.93933594 -45.15742188 100.75757812 -44.30078125 100.5703125 C-43.21410156 100.31894531 -42.12742187 100.06757812 -41.0078125 99.80859375 C-39.92886719 99.56496094 -38.84992188 99.32132812 -37.73828125 99.0703125 C-34.86915907 98.1369836 -33.58262346 97.52649361 -31.8203125 95.12109375 C-31.8203125 94.46109375 -31.8203125 93.80109375 -31.8203125 93.12109375 C-30.8303125 93.12109375 -29.8403125 93.12109375 -28.8203125 93.12109375 C-28.8203125 92.46109375 -28.8203125 91.80109375 -28.8203125 91.12109375 C-28.1603125 91.12109375 -27.5003125 91.12109375 -26.8203125 91.12109375 C-26.3253125 89.14109375 -26.3253125 89.14109375 -25.8203125 87.12109375 C-22.5203125 87.45109375 -19.2203125 87.78109375 -15.8203125 88.12109375 C-15.4903125 86.14109375 -15.1603125 84.16109375 -14.8203125 82.12109375 C-11.5203125 82.12109375 -8.2203125 82.12109375 -4.8203125 82.12109375 C-5.4803125 83.11109375 -6.1403125 84.10109375 -6.8203125 85.12109375 C-7.04323835 87.15786018 -7.04323835 87.15786018 -5.8203125 89.12109375 C-1.31063912 92.36123822 -1.31063912 92.36123822 3.9921875 93.12109375 C6.25762571 92.28938616 6.25762571 92.28938616 7.4921875 90.43359375 C8.33869669 87.58624466 8.31397672 85.07545669 8.1796875 82.12109375 C8.8396875 82.12109375 9.4996875 82.12109375 10.1796875 82.12109375 C10.1796875 83.44109375 10.1796875 84.76109375 10.1796875 86.12109375 C11.4996875 86.12109375 12.8196875 86.12109375 14.1796875 86.12109375 C17.95592662 78.97902175 17.95592662 78.97902175 17.1796875 71.12109375 C13.07745165 70.10569263 13.07745165 70.10569263 9.1796875 71.12109375 C9.1796875 71.78109375 9.1796875 72.44109375 9.1796875 73.12109375 C8.5196875 73.12109375 7.8596875 73.12109375 7.1796875 73.12109375 C7.1796875 69.49109375 7.1796875 65.86109375 7.1796875 62.12109375 C8.8296875 62.78109375 10.4796875 63.44109375 12.1796875 64.12109375 C13.4996875 64.12109375 14.8196875 64.12109375 16.1796875 64.12109375 C16.1796875 65.11109375 16.1796875 66.10109375 16.1796875 67.12109375 C16.8396875 67.12109375 17.4996875 67.12109375 18.1796875 67.12109375 C18.5096875 68.77109375 18.8396875 70.42109375 19.1796875 72.12109375 C23.8142693 67.48651195 23.33583806 59.24595294 23.4296875 53.05859375 C23.32697051 47.44541237 22.84498485 42.474458 21.1796875 37.12109375 C20.86128906 36.04085937 20.54289062 34.960625 20.21484375 33.84765625 C17.49569078 25.40638003 13.77538722 18.96275444 8.1796875 12.12109375 C7.55320312 11.28707031 6.92671875 10.45304687 6.28125 9.59375 C-3.00592091 -1.33334886 -16.91550044 -7.51335731 -30.8203125 -9.87890625 C-32.81982344 -9.92313292 -34.82109968 -9.93501414 -36.8203125 -9.87890625 Z " fill="#E59836" transform="translate(425.8203125,14.87890625)"/>
<path d="M0 0 C3.83222131 1.2774071 4.12068208 2.45940352 6.0625 5.9375 C6.67609375 7.02546875 7.2896875 8.1134375 7.921875 9.234375 C8.61561596 10.48901291 9.30826527 11.74425486 10 13 C10.77577668 14.40118841 11.55182952 15.80222395 12.328125 17.203125 C13.58244133 19.46673307 14.83628611 21.73058016 16.0871582 23.99609375 C19.46010207 30.08536985 22.96674284 36.08750002 26.51733398 42.07446289 C29.36779461 46.89189475 32.10618139 51.7567789 34.75 56.69140625 C35.91525591 58.84348826 37.13317418 60.95398324 38.375 63.0625 C40 66 40 66 40 68 C40.88042969 67.44570312 41.76085938 66.89140625 42.66796875 66.3203125 C43.84101486 65.58833173 45.0141993 64.85657261 46.1875 64.125 C47.0547168 63.57779297 47.0547168 63.57779297 47.93945312 63.01953125 C51.21123202 60.98622233 54.39920611 59.35340184 58 58 C59.63571955 57.06530311 61.27090432 56.12964761 62.90234375 55.1875 C77.40330612 46.97838909 93.60757911 40.19208196 110 37 C110.93199219 36.79761719 111.86398438 36.59523437 112.82421875 36.38671875 C137.1253488 31.61733809 159.40526837 38.02686311 181 49 C182 50 182 50 182.1241985 52.41329294 C182.12362892 54.03944526 182.12362892 54.03944526 182.12304783 55.69844913 C182.12503888 56.9440124 182.12702993 58.18957567 182.12908131 59.47288328 C182.12622772 60.87304074 182.12328211 62.27319801 182.12025452 63.6733551 C182.12069009 65.14677208 182.12156474 66.62018898 182.12284368 68.09360546 C182.1250914 72.16171776 182.1210636 76.22980398 182.11606562 80.29791296 C182.11176525 84.67762274 182.11320725 89.05733094 182.1139679 93.43704224 C182.1144934 101.0315899 182.1113439 108.626129 182.10573006 116.22067451 C182.09761855 127.20124409 182.0950002 138.18180951 182.09374207 149.16238176 C182.09155099 166.9756885 182.08488942 184.78899067 182.07543945 202.60229492 C182.06626676 219.91088844 182.05918523 237.21948072 182.05493164 254.52807617 C182.05466892 255.59417087 182.05440619 256.66026557 182.05413551 257.75866617 C182.05283051 263.10670896 182.0515668 268.45475177 182.05032361 273.80279458 C182.03994928 318.20186622 182.02232947 362.60093287 182 407 C181.01 407 180.02 407 179 407 C178.67 289.85 178.34 172.7 178 52 C166.44626283 46.56294722 157.15750917 42.47912341 145 40 C144.19175781 39.80921875 143.38351563 39.6184375 142.55078125 39.421875 C107.96091276 33.70103917 70.6671315 52.77664124 42.65527344 71.07324219 C41 72 41 72 39 72 C38.55914062 71.17435547 38.55914062 71.17435547 38.109375 70.33203125 C33.10759495 61.06149065 27.84499386 51.94116362 22.60546875 42.80371094 C21.03518097 40.06143831 19.4697829 37.31644121 17.90625 34.5703125 C17.40327393 33.68754639 16.90029785 32.80478027 16.38208008 31.89526367 C15.38387527 30.14319027 14.38630805 28.39075346 13.3894043 26.63793945 C10.96555844 22.38907078 8.5115726 18.16334247 5.98828125 13.97265625 C5.27986084 12.79171387 5.27986084 12.79171387 4.55712891 11.58691406 C3.66418533 10.10408655 2.76442646 8.62533542 1.85693359 7.15136719 C0.84444997 5.46902274 -0.0869966 3.73834137 -1 2 C-0.67 1.34 -0.34 0.68 0 0 Z " fill="#095194" transform="translate(20,125)"/>
<path d="M0 0 C3.3 0 6.6 0 10 0 C9.67 1.98 9.34 3.96 9 6 C10.0725 6.66 11.145 7.32 12.25 8 C12.85328125 8.37125 13.4565625 8.7425 14.078125 9.125 C16.25479385 10.27624023 16.25479385 10.27624023 20 10 C21.88391785 6.73454239 22.49287967 3.71888239 23 0 C23.66 0 24.32 0 25 0 C25 1.32 25 2.64 25 4 C25.66 4 26.32 4 27 4 C26.05520521 10.9556444 18.56306503 17.02529997 13.27734375 21.09765625 C-1.62243541 30.85218793 -14.5853563 33.38891264 -32 33 C-32.53190541 31.56656 -33.05015258 30.12804633 -33.5625 28.6875 C-33.85253906 27.88699219 -34.14257812 27.08648437 -34.44140625 26.26171875 C-35 24 -35 24 -34 21 C-33.34 21 -32.68 21 -32 21 C-32 20.34 -32 19.68 -32 19 C-31.16855469 18.75765625 -30.33710938 18.5153125 -29.48046875 18.265625 C-28.39378906 17.93046875 -27.30710937 17.5953125 -26.1875 17.25 C-24.56908203 16.76273438 -24.56908203 16.76273438 -22.91796875 16.265625 C-19.75847311 14.89524135 -18.91961931 13.74396033 -17 11 C-16.01 11 -15.02 11 -14 11 C-14 10.34 -14 9.68 -14 9 C-13.34 9 -12.68 9 -12 9 C-11.67 7.68 -11.34 6.36 -11 5 C-7.18510326 3.53273202 -4.70988378 4.56663581 -1 6 C-0.67 4.02 -0.34 2.04 0 0 Z " fill="#B7B7B5" transform="translate(411,97)"/>
<path d="M0 0 C1.22927285 4.45134207 1.22927285 4.45134207 0.21484375 6.87890625 C-2.75018803 10.78694508 -5.52220149 13.76110075 -10 16 C-12.875 15.75 -12.875 15.75 -15 15 C-15 15.66 -15 16.32 -15 17 C-17.28388314 18.14194157 -18.8383666 18.16502131 -21.375 18.3125 C-24.65061489 18.6442745 -25.79445928 18.84584446 -28.5 20.875 C-30.1668497 23.01931277 -30.1668497 23.01931277 -31 26 C-30.34 26 -29.68 26 -29 26 C-28.731875 26.598125 -28.46375 27.19625 -28.1875 27.8125 C-27.15746454 30.05845275 -27.15746454 30.05845275 -25.3125 31.3125 C-24 33 -24 33 -24.3125 36.6875 C-24.539375 37.780625 -24.76625 38.87375 -25 40 C-27.475 40.495 -27.475 40.495 -30 41 C-30.33 41.99 -30.66 42.98 -31 44 C-33.5 42.1875 -33.5 42.1875 -36 40 C-36 39.01 -36 38.02 -36 37 C-37.32 37 -38.64 37 -40 37 C-40 36.34 -40 35.68 -40 35 C-40.99 35 -41.98 35 -43 35 C-43.33 35.99 -43.66 36.98 -44 38 C-44.66 35.03 -45.32 32.06 -46 29 C-47.65 28.67 -49.3 28.34 -51 28 C-51.28890384 24.58212065 -51.41961512 22.6310491 -49.48828125 19.7265625 C-35.47650786 6.19274907 -19.57717765 -1.35743142 0 0 Z " fill="#BCBAB7" transform="translate(389,5)"/>
<path d="M0 0 C0.99 0.33 1.98 0.66 3 1 C3 97.03 3 193.06 3 292 C2.01 292 1.02 292 0 292 C0 195.64 0 99.28 0 0 Z " fill="#D6D9E0" transform="translate(317,240)"/>
<path d="M0 0 C0.99 0.33 1.98 0.66 3 1 C3 3.64 3 6.28 3 9 C3.66 9 4.32 9 5 9 C5 10.65 5 12.3 5 14 C5.66 14 6.32 14 7 14 C7 13.01 7 12.02 7 11 C13.625 9.75 13.625 9.75 17 12 C14.03 12 11.06 12 8 12 C8 12.99 8 13.98 8 15 C9.98 14.67 11.96 14.34 14 14 C14 14.66 14 15.32 14 16 C13.34 16 12.68 16 12 16 C12.495 17.11375 12.495 17.11375 13 18.25 C14 21 14 21 14 25 C13.01 25.66 12.02 26.32 11 27 C11.99 27.66 12.98 28.32 14 29 C14.495 30.485 14.495 30.485 15 32 C15.495 30.515 15.495 30.515 16 29 C17.98 28.67 19.96 28.34 22 28 C22 28.99 22 29.98 22 31 C21.01 31 20.02 31 19 31 C19 32.65 19 34.3 19 36 C17.35 36 15.7 36 14 36 C14 35.01 14 34.02 14 33 C12.35 33 10.7 33 9 33 C9 33.66 9 34.32 9 35 C4.05 34.34 -0.9 33.68 -6 33 C-6 32.34 -6 31.68 -6 31 C-7.33804687 30.92652344 -7.33804687 30.92652344 -8.703125 30.8515625 C-9.87359375 30.77679688 -11.0440625 30.70203125 -12.25 30.625 C-13.41015625 30.55539063 -14.5703125 30.48578125 -15.765625 30.4140625 C-18.70694334 30.03751692 -20.49949011 29.5225877 -23 28 C-23 27.34 -23 26.68 -23 26 C-19.4316389 25.91890088 -16.43340232 26.09115821 -13 27 C-10.3376303 27.38033853 -7.67167736 27.68830431 -5 28 C-4.34 26.68 -3.68 25.36 -3 24 C-3.9075 23.87625 -4.815 23.7525 -5.75 23.625 C-8.58970323 23.07890323 -10.52590591 22.42736197 -13 21 C-12.34 20.67 -11.68 20.34 -11 20 C-11.99 19.67 -12.98 19.34 -14 19 C-14.94921875 16.93359375 -14.94921875 16.93359375 -15.6875 14.4375 C-15.93886719 13.61121094 -16.19023437 12.78492187 -16.44921875 11.93359375 C-16.63097656 11.29550781 -16.81273437 10.65742187 -17 10 C-14 9 -14 9 -11 10 C-11 9.01 -11 8.02 -11 7 C-9.35 7 -7.7 7 -6 7 C-5.67 6.01 -5.34 5.02 -5 4 C-3.68352881 3.30062468 -2.34977849 2.63270867 -1 2 C-0.67 1.34 -0.34 0.68 0 0 Z " fill="#F9BD18" transform="translate(381,57)"/>
<path d="M0 0 C4.0787449 1.35958163 4.45880941 3.12993421 6.5 6.875 C7.21525965 8.1671576 7.93145464 9.45879776 8.6484375 10.75 C9.02967773 11.44222656 9.41091797 12.13445312 9.80371094 12.84765625 C11.86231242 16.55145843 13.99691939 20.21083212 16.125 23.875 C16.57327148 24.65214355 17.02154297 25.42928711 17.48339844 26.22998047 C20.23419062 30.99213518 23.02657346 35.72675691 25.8515625 40.4453125 C26.82198486 42.07750732 26.82198486 42.07750732 27.81201172 43.74267578 C29.08915186 45.8892623 30.37445762 48.03101466 31.66845703 50.16748047 C32.24708496 51.14346191 32.82571289 52.11944336 33.421875 53.125 C33.94362305 53.99382812 34.46537109 54.86265625 35.00292969 55.7578125 C36 58 36 58 35 61 C32.83207924 58.95723432 31.20474874 56.94094393 29.65234375 54.40234375 C29.21712402 53.69247314 28.7819043 52.98260254 28.33349609 52.2512207 C27.87281738 51.48769287 27.41213867 50.72416504 26.9375 49.9375 C26.21167725 48.74290161 26.21167725 48.74290161 25.47119141 47.52416992 C21.71238874 41.29073031 18.14559655 34.963243 14.65258789 28.57788086 C11.49124189 22.81606257 8.15768845 17.17630504 4.69091797 11.59301758 C2 7.20910961 2 7.20910961 2 5 C-0.88224673 7.7127028 -3.36914641 10.41497195 -5.6875 13.625 C-9.00269267 18.15348484 -12.75328054 22.22062005 -16.5625 26.3359375 C-18.5912535 28.55326104 -20.52084081 30.81210838 -22.4375 33.125 C-34.41056758 46.79657251 -54.34138477 60.78705577 -72.85864258 62.22143555 C-85.11231771 62.6841921 -96.60050427 62.93386944 -108 58 C-108.98355469 57.62617188 -109.96710938 57.25234375 -110.98046875 56.8671875 C-118.66477821 53.86503814 -125.81286514 50.02247709 -133 46 C-133 44.68 -133 43.36 -133 42 C-129.46316013 43.30375004 -126.22670291 44.92848367 -122.9387207 46.76708984 C-105.23575938 56.630991 -86.47083342 62.17026069 -66.390625 57.03125 C-37.66740254 48.29515469 -16.84129722 23.72466121 0 0 Z " fill="#0C5395" transform="translate(470,84)"/>
<path d="M0 0 C3.34633472 0.83658368 5.24210879 1.56919996 8.125 3.25 C12.99138789 6.02732287 17.97076875 8.53263185 23 11 C23 11.33 23 11.66 23 12 C16 11 16 11 2 4 C2 100.36 2 196.72 2 296 C1.34 296 0.68 296 0 296 C0 198.32 0 100.64 0 0 Z " fill="#014691" transform="translate(315,236)"/>
<path d="M0 0 C5.44719842 10.25224744 3.5439762 24.19826698 0.63818359 34.99121094 C-4.97856813 52.67087167 -16.86778652 66.4617901 -32.93359375 75.4296875 C-48.19533257 83.24525311 -64.54776258 84.7358354 -81 80 C-84.69786165 78.74493902 -88.35593641 77.40313477 -92 76 C-91.01 75.01 -91.01 75.01 -90 74 C-88.1875 74.13671875 -88.1875 74.13671875 -86 74.6875 C-85.20722656 74.88472656 -84.41445313 75.08195312 -83.59765625 75.28515625 C-79.3744715 76.44732589 -75.17991469 77.69104968 -71 79 C-70.67 78.34 -70.34 77.68 -70 77 C-70 77.66 -70 78.32 -70 79 C-50.28652021 78.27450392 -32.69370259 74.21233447 -18.015625 60.17578125 C-13.71420332 55.58013649 -13.71420332 55.58013649 -11 50 C-10.34 50 -9.68 50 -9 50 C-7.094753 44.89665983 -5.57410977 40.53657294 -6 35 C-8.64 35 -11.28 35 -14 35 C-14 35.66 -14 36.32 -14 37 C-14.66 37 -15.32 37 -16 37 C-16 33.37 -16 29.74 -16 26 C-11.545 26.99 -11.545 26.99 -7 28 C-7 28.99 -7 29.98 -7 31 C-6.34 31 -5.68 31 -5 31 C-4.505 32.98 -4.505 32.98 -4 35 C0.06918539 23.6302173 0.30076119 11.93019383 0 0 Z " fill="#E0993F" transform="translate(449,51)"/>
<path d="M0 0 C-0.33 1.32 -0.66 2.64 -1 4 C-2.11632812 4.15855469 -3.23265625 4.31710938 -4.3828125 4.48046875 C-22.35343204 7.1227491 -39.89673001 10.81412344 -57 17 C-58.17820312 17.40089844 -59.35640625 17.80179688 -60.5703125 18.21484375 C-67.64145163 20.64700479 -74.41315558 23.44336187 -81.16015625 26.66796875 C-88.26392962 30 -88.26392962 30 -93 30 C-93 30.66 -93 31.32 -93 32 C-95.55657735 33.34588326 -98.11923905 34.67675328 -100.6875 36 C-101.40873047 36.3815625 -102.12996094 36.763125 -102.87304688 37.15625 C-106.70546553 39.1162084 -109.57371149 40.55874253 -114 40 C-114.33 40.99 -114.66 41.98 -115 43 C-117.17577663 44.34938604 -119.28612355 45.53851757 -121.5625 46.6875 C-122.17802734 47.00783203 -122.79355469 47.32816406 -123.42773438 47.65820312 C-124.9473555 48.44746371 -126.47311811 49.22487915 -128 50 C-127.27719567 55.53810641 -124.43610525 59.42473538 -121.49609375 64.0625 C-119.96684458 67.0650989 -119.66580796 68.69453692 -120 72 C-123.71155013 68.56647871 -125.81295739 64.37841554 -128.25 60 C-128.72179687 59.18015625 -129.19359375 58.3603125 -129.6796875 57.515625 C-130.12054688 56.72671875 -130.56140625 55.9378125 -131.015625 55.125 C-131.42071289 54.40570313 -131.82580078 53.68640625 -132.24316406 52.9453125 C-133 51 -133 51 -132 48 C-130.08007812 46.65649414 -130.08007812 46.65649414 -127.53125 45.28515625 C-126.58072754 44.76993408 -125.63020508 44.25471191 -124.65087891 43.72387695 C-123.61108887 43.17562256 -122.57129883 42.62736816 -121.5 42.0625 C-120.42282715 41.48910889 -119.3456543 40.91571777 -118.23583984 40.32495117 C-83.81893128 22.15867018 -40.15211151 0 0 0 Z " fill="#0B5295" transform="translate(139,53)"/>
<path d="M0 0 C30.15724224 5.29074425 58.93350942 25.20701354 83.578125 42.2734375 C88.94913349 45.98660763 94.39519753 49.57484962 99.875 53.125 C100.67695801 53.64513672 101.47891602 54.16527344 102.30517578 54.70117188 C107.17438241 57.84790308 112.07441117 60.94233177 117 64 C113.20720018 65.26426661 111.65934648 64.40145184 108 63 C107.34 62.67 106.68 62.34 106 62 C106 61.34 106 60.68 106 60 C104.69095703 59.61714844 104.69095703 59.61714844 103.35546875 59.2265625 C99.91248352 57.96800911 97.33072405 56.44205113 94.3125 54.375 C92.76175781 53.31732422 92.76175781 53.31732422 91.1796875 52.23828125 C87.16399752 49.41151177 83.2052621 46.51378698 79.27734375 43.56640625 C77.00279025 41.84699602 77.00279025 41.84699602 74 41 C74 40.34 74 39.68 74 39 C73.32324219 38.7628125 72.64648438 38.525625 71.94921875 38.28125 C68.32681566 36.70754376 65.1181852 34.63654663 61.8125 32.5 C43.29416515 20.7902844 24.01917241 10.77900015 3.11499023 4.00537109 C2.41704346 3.67359863 1.71909668 3.34182617 1 3 C0.67 2.01 0.34 1.02 0 0 Z " fill="#0C5395" transform="translate(220,61)"/>
<path d="M0 0 C0.99 0.33 1.98 0.66 3 1 C2.979375 1.9075 2.95875 2.815 2.9375 3.75 C2.83418946 6.82207548 2.83418946 6.82207548 3.640625 8.91015625 C4.13903718 11.80853143 3.23970962 13.1553539 1.8125 15.6875 C1.38582031 16.47511719 0.95914062 17.26273438 0.51953125 18.07421875 C-1 20 -1 20 -2.890625 20.79296875 C-6.87096557 21.18363181 -10.42086368 20.87091217 -14 19 C-15.67920481 16.12436177 -16.41595211 13.26261234 -17 10 C-14 9 -14 9 -11 10 C-11 9.01 -11 8.02 -11 7 C-9.35 7 -7.7 7 -6 7 C-5.67 6.01 -5.34 5.02 -5 4 C-3.68352881 3.30062468 -2.34977849 2.63270867 -1 2 C-0.67 1.34 -0.34 0.68 0 0 Z " fill="#FDFBF5" transform="translate(381,57)"/>
<path d="M0 0 C2.375 0.625 2.375 0.625 5 2 C7.4753062 6.95061239 7.59089456 12.55243806 8 18 C9.32 17.67 10.64 17.34 12 17 C12.33 17.99 12.66 18.98 13 20 C12.34 20 11.68 20 11 20 C11 21.98 11 23.96 11 26 C7.17624552 25.88753663 5.99097735 24.99097735 3.25 22.25 C-1.8982362 15.81470475 -6.43138405 8.85292393 -11 2 C-8.8125 1.6875 -8.8125 1.6875 -6 2 C-3.3125 4.4375 -3.3125 4.4375 -1 7 C-0.34 7.33 0.32 7.66 1 8 C0.67 5.36 0.34 2.72 0 0 Z " fill="#FCFAF1" transform="translate(347,56)"/>
<path d="M0 0 C0.83966309 0.18626953 1.67932617 0.37253906 2.54443359 0.56445312 C4.7265625 1.21875 4.7265625 1.21875 7.7265625 3.21875 C6.7365625 3.21875 5.7465625 3.21875 4.7265625 3.21875 C4.3965625 3.87875 4.0665625 4.53875 3.7265625 5.21875 C3.18990967 5.07775879 2.65325684 4.93676758 2.1003418 4.79150391 C-17.60201539 -0.3165921 -36.49059358 -1.97851032 -56.77685547 -2.44042969 C-58.06221191 -2.47168945 -59.34756836 -2.50294922 -60.671875 -2.53515625 C-62.39929932 -2.57104858 -62.39929932 -2.57104858 -64.16162109 -2.60766602 C-66.97002499 -2.76432498 -69.53842215 -3.1462786 -72.2734375 -3.78125 C-72.2734375 -4.11125 -72.2734375 -4.44125 -72.2734375 -4.78125 C-47.84575268 -8.04349423 -23.86415482 -5.31200909 0 0 Z " fill="#0B5395" transform="translate(212.2734375,57.78125)"/>
<path d="M0 0 C3.71869418 4.74490869 6.6173672 9.98735325 9.63500977 15.19042969 C10.68687416 16.99892397 11.75053428 18.80014052 12.81445312 20.6015625 C13.4851166 21.75477737 14.15506337 22.9084094 14.82421875 24.0625 C15.43354248 25.10535156 16.04286621 26.14820313 16.6706543 27.22265625 C18 30 18 30 18 34 C16.15137753 36.00488562 14.36626386 37.73275185 12.3125 39.5 C11.78205078 39.97308594 11.25160156 40.44617188 10.70507812 40.93359375 C1.59964725 49 1.59964725 49 -1 49 C-1 49.66 -1 50.32 -1 51 C-5.47058824 55 -5.47058824 55 -8 55 C-8 54.01 -8 53.02 -8 52 C-7.34 52 -6.68 52 -6 52 C-5.79375 51.443125 -5.5875 50.88625 -5.375 50.3125 C-3.42316968 47.02987629 -1.05769006 45.29326754 2 43 C2.66 43 3.32 43 4 43 C4 42.34 4 41.68 4 41 C5.61457079 39.56418526 7.29219075 38.19855217 9 36.875 C9.928125 36.15054688 10.85625 35.42609375 11.8125 34.6796875 C12.8953125 33.84824219 12.8953125 33.84824219 14 33 C13.32309214 29.29736906 11.7006102 26.51060887 9.8046875 23.28125 C8.85529297 21.63576172 8.85529297 21.63576172 7.88671875 19.95703125 C6.87813132 18.22382761 5.86947982 16.49063649 4.85107422 14.76318359 C3.86636033 13.08807638 2.89778418 11.4035154 1.9296875 9.71875 C1.34429199 8.71779297 0.75889648 7.71683594 0.15576172 6.68554688 C-1 4 -1 4 -0.68310547 1.64257812 C-0.45768066 1.10052734 -0.23225586 0.55847656 0 0 Z " fill="#0A5094" transform="translate(507,145)"/>
<path d="M0 0 C0 0.66 0 1.32 0 2 C-22.73333391 13.3414637 -52.15577816 26.61474061 -78 18 C-78 17.67 -78 17.34 -78 17 C-76.329375 17.03480469 -76.329375 17.03480469 -74.625 17.0703125 C-60.3516419 17.27662497 -46.70088452 16.37695419 -33 12 C-32.06027344 11.71253906 -31.12054688 11.42507812 -30.15234375 11.12890625 C-21.50403843 8.38286991 -12.80470877 5.08630642 -4.78125 0.8203125 C-3 0 -3 0 0 0 Z " fill="#084D90" transform="translate(442,237)"/>
<path d="M0 0 C0.66 1.65 1.32 3.3 2 5 C3.2236068 2.9254644 3.2236068 2.9254644 3 0 C3.66 0 4.32 0 5 0 C5.33 0.66 5.66 1.32 6 2 C7.9914056 2.38133299 9.99279077 2.71325582 12 3 C12.66 3.33 13.32 3.66 14 4 C14 8.62 14 13.24 14 18 C11.69 17.67 9.38 17.34 7 17 C7 16.34 7 15.68 7 15 C7.66 15 8.32 15 9 15 C9.04289755 13.06890419 9.04289755 13.06890419 8 11 C4.09420622 8.97199169 0.34885027 7.65891671 -4 7 C-4.12375 6.360625 -4.2475 5.72125 -4.375 5.0625 C-4.58125 4.381875 -4.7875 3.70125 -5 3 C-5.66 2.67 -6.32 2.34 -7 2 C-7 3.65 -7 5.3 -7 7 C-8.98 7 -10.96 7 -13 7 C-13 6.01 -13 5.02 -13 4 C-12.01 4 -11.02 4 -10 4 C-10 3.01 -10 2.02 -10 1 C-6.52674819 -0.1577506 -3.63932552 -0.06866652 0 0 Z " fill="#FAF8EF" transform="translate(419,71)"/>
<path d="M0 0 C5.93632646 11.17284208 2.94010325 25.32050729 0 37 C-0.62881942 38.6813115 -1.28083625 40.35530376 -2 42 C-2.66 40.68 -3.32 39.36 -4 38 C-4.66 38 -5.32 38 -6 38 C-6 37.01 -6 36.02 -6 35 C-8.64 35 -11.28 35 -14 35 C-14 35.66 -14 36.32 -14 37 C-14.66 37 -15.32 37 -16 37 C-16 33.37 -16 29.74 -16 26 C-11.545 26.99 -11.545 26.99 -7 28 C-7 28.99 -7 29.98 -7 31 C-6.34 31 -5.68 31 -5 31 C-4.67 32.32 -4.34 33.64 -4 35 C0.06918539 23.6302173 0.30076119 11.93019383 0 0 Z " fill="#E6A24B" transform="translate(449,51)"/>
<path d="M0 0 C0.33 0.99 0.66 1.98 1 3 C3.97 3.33 6.94 3.66 10 4 C8.02 4.99 8.02 4.99 6 6 C7.98 6.66 9.96 7.32 12 8 C11.34 9.65 10.68 11.3 10 13 C3.91766294 12.32418477 -2.01314152 11.26361972 -8 10 C-8.33 10.66 -8.66 11.32 -9 12 C-9 11.34 -9 10.68 -9 10 C-10.32 10 -11.64 10 -13 10 C-12.67 9.34 -12.34 8.68 -12 8 C-10.02 8.495 -10.02 8.495 -8 9 C-8.020625 8.05125 -8.04125 7.1025 -8.0625 6.125 C-8 3 -8 3 -7 1 C-5.02 1.66 -3.04 2.32 -1 3 C-0.67 2.01 -0.34 1.02 0 0 Z " fill="#F9C126" transform="translate(366,73)"/>
<path d="M0 0 C2 2 2 2 2 4.5 C-1.65379843 17.28829449 -12.18705641 27.53270158 -22.87109375 34.85546875 C-25 36 -25 36 -28 36 C-28 35.01 -28 34.02 -28 33 C-25.9453125 31.5625 -25.9453125 31.5625 -23.125 30 C-16.3829313 25.91283918 -8.56929771 19.70789312 -6 12 C-5.34 12 -4.68 12 -4 12 C-3.79503906 11.38511719 -3.59007812 10.77023438 -3.37890625 10.13671875 C-2.25260417 6.7578125 -1.12630208 3.37890625 0 0 Z " fill="#E49533" transform="translate(444,89)"/>
<path d="M0 0 C0.99 0.66 1.98 1.32 3 2 C-7.34546118 10.49321704 -17.985247 18.3961803 -29 26 C-29.33 25.01 -29.66 24.02 -30 23 C-29.53851563 22.6596875 -29.07703125 22.319375 -28.6015625 21.96875 C-24.69801391 19.06808939 -20.85500242 16.10718504 -17.0625 13.0625 C-15.80953125 12.05896484 -15.80953125 12.05896484 -14.53125 11.03515625 C-12.83865135 9.67428604 -11.15115868 8.30704158 -9.46875 6.93359375 C-8.6746875 6.29550781 -7.880625 5.65742188 -7.0625 5 C-6.35222656 4.4225 -5.64195312 3.845 -4.91015625 3.25 C-3 2 -3 2 0 2 C0 1.34 0 0.68 0 0 Z " fill="#105496" transform="translate(496,199)"/>
<path d="M0 0 C3.90790252 5.02486936 7.01234502 10.5308139 10.25 16 C11.24386719 17.6396875 11.24386719 17.6396875 12.2578125 19.3125 C12.87914062 20.364375 13.50046875 21.41625 14.140625 22.5 C14.71329102 23.4590625 15.28595703 24.418125 15.87597656 25.40625 C17 28 17 28 16.67871094 30.34375 C16.45473633 30.8903125 16.23076172 31.436875 16 32 C11.71104029 26.83167234 8.5046051 21.25780764 5.1875 15.4375 C4.57712891 14.39658203 3.96675781 13.35566406 3.33789062 12.28320312 C2.76619141 11.28095703 2.19449219 10.27871094 1.60546875 9.24609375 C1.08106201 8.33529053 0.55665527 7.4244873 0.01635742 6.48608398 C-1.10122935 3.75238566 -1.07001325 2.69927099 0 0 Z " fill="#0C5294" transform="translate(507,145)"/>
<path d="M0 0 C0 0.33 0 0.66 0 1 C-2.97 1 -5.94 1 -9 1 C-9 1.99 -9 2.98 -9 4 C-7.02 3.67 -5.04 3.34 -3 3 C-3 3.66 -3 4.32 -3 5 C-3.66 5 -4.32 5 -5 5 C-4.67 5.7425 -4.34 6.485 -4 7.25 C-3 10 -3 10 -3 14 C-3.66 14 -4.32 14 -5 14 C-5 13.34 -5 12.68 -5 12 C-5.66 12 -6.32 12 -7 12 C-7.33 12.99 -7.66 13.98 -8 15 C-8.99 15 -9.98 15 -11 15 C-11.90226443 9.51325682 -12.46970526 5.1993795 -10 0 C-6.7169902 -1.6415049 -3.57454967 -0.51888624 0 0 Z " fill="#FCF9EA" transform="translate(398,68)"/>
<path d="M0 0 C0.66 1.65 1.32 3.3 2 5 C3.2236068 2.9254644 3.2236068 2.9254644 3 0 C3.66 0 4.32 0 5 0 C5.33 0.66 5.66 1.32 6 2 C6.99 2.33 7.98 2.66 9 3 C3.08315098 8.05908096 3.08315098 8.05908096 -1.4375 7.8125 C-2.7059375 7.4103125 -2.7059375 7.4103125 -4 7 C-4.12375 6.360625 -4.2475 5.72125 -4.375 5.0625 C-4.58125 4.381875 -4.7875 3.70125 -5 3 C-5.66 2.67 -6.32 2.34 -7 2 C-7 3.65 -7 5.3 -7 7 C-8.98 7 -10.96 7 -13 7 C-13 6.01 -13 5.02 -13 4 C-12.01 4 -11.02 4 -10 4 C-10 3.01 -10 2.02 -10 1 C-6.52674819 -0.1577506 -3.63932552 -0.06866652 0 0 Z " fill="#F8F0D3" transform="translate(419,71)"/>
<path d="M0 0 C1.4606285 2.64738916 2 3.89448334 2 7 C1.360625 7.226875 0.72125 7.45375 0.0625 7.6875 C-2.27193661 8.85250896 -2.27193661 8.85250896 -2.75 11.625 C-2.8325 12.40875 -2.915 13.1925 -3 14 C-4.65 14 -6.3 14 -8 14 C-8.5 11.5 -8.5 11.5 -8 8 C-5.58622266 5.04629878 -2.86095001 2.51610335 0 0 Z " fill="#BBB9B6" transform="translate(346,19)"/>
<path d="M0 0 C2.31 0.66 4.62 1.32 7 2 C7.33 3.32 7.66 4.64 8 6 C8.66 6 9.32 6 10 6 C10 6.99 10 7.98 10 9 C7.36 9 4.72 9 2 9 C2 9.66 2 10.32 2 11 C1.34 11 0.68 11 0 11 C0 7.37 0 3.74 0 0 Z " fill="#BAB9B3" transform="translate(433,77)"/>
<path d="M0 0 C0.67804688 0.43570313 1.35609375 0.87140625 2.0546875 1.3203125 C8.30803167 5.32175988 14.61210331 9.21714578 21 13 C17.20720018 14.26426661 15.65934648 13.40145184 12 12 C11.34 11.67 10.68 11.34 10 11 C10 10.34 10 9.68 10 9 C8.63875 8.62875 8.63875 8.62875 7.25 8.25 C3.85924003 6.94586155 2.23078312 5.83137858 0 3 C0 2.01 0 1.02 0 0 Z " fill="#0E5395" transform="translate(316,112)"/>
<path d="M0 0 C3.56127623 -0.0809381 6.57550106 0.06604574 10 1 C11.155 1.144375 12.31 1.28875 13.5 1.4375 C16.51302396 1.92173599 18.4242759 2.45456554 21 4 C21 4.66 21 5.32 21 6 C18.24874911 5.71766639 15.49938663 5.42452667 12.75 5.125 C11.97269531 5.04636719 11.19539063 4.96773438 10.39453125 4.88671875 C3.27568856 4.09573623 3.27568856 4.09573623 0 2 C0 1.34 0 0.68 0 0 Z " fill="#FBF6E5" transform="translate(358,83)"/>
<path d="M0 0 C0.33 0.66 0.66 1.32 1 2 C5.95 2 10.9 2 16 2 C15.67 2.99 15.34 3.98 15 5 C9.47032059 5.71033431 4.50016964 6.30267176 -1 5 C-0.67 3.35 -0.34 1.7 0 0 Z " fill="#DB9F48" transform="translate(378,128)"/>
<path d="M0 0 C2.375 0.625 2.375 0.625 5 2 C7.11667001 6.33413384 7.19065775 10.23355631 7 15 C4.31799353 13.25532743 2.0150581 11.4998841 0 9 C-0.59797636 5.90961797 -0.43478214 3.10558674 0 0 Z " fill="#F5CF5D" transform="translate(347,56)"/>
<path d="M0 0 C0.66 0.33 1.32 0.66 2 1 C1.01 8.59 0.02 16.18 -1 24 C-1.33 24 -1.66 24 -2 24 C-3.70139544 15.70569725 -3.85552069 7.71104137 0 0 Z " fill="#DFA34B" transform="translate(323,54)"/>
<path d="M0 0 C0.66 0.33 1.32 0.66 2 1 C0.43416404 5.03721561 -2.44173865 7.47070582 -5.625 10.25 C-6.140625 10.70890625 -6.65625 11.1678125 -7.1875 11.640625 C-8.4534602 12.76592296 -9.72607942 13.88372177 -11 15 C-11.33 14.01 -11.66 13.02 -12 12 C-11.34 12 -10.68 12 -10 12 C-9.7525 10.9790625 -9.7525 10.9790625 -9.5 9.9375 C-7.28698373 5.60367647 -3.74480511 3.02197064 0 0 Z " fill="#1B5D99" transform="translate(524,175)"/>
<path d="M0 0 C1.32 0 2.64 0 4 0 C4.33 2.64 4.66 5.28 5 8 C2.69 7.67 0.38 7.34 -2 7 C-1.34 6.67 -0.68 6.34 0 6 C0 5.34 0 4.68 0 4 C-1.98 4.33 -3.96 4.66 -6 5 C-6 4.01 -6 3.02 -6 2 C-4.02 1.67 -2.04 1.34 0 1 C0 0.67 0 0.34 0 0 Z " fill="#F8C843" transform="translate(395,67)"/>
<path d="M0 0 C0 0.33 0 0.66 0 1 C-2.58252893 1.50449402 -5.16588703 2.00374301 -7.75 2.5 C-8.84441406 2.71462891 -8.84441406 2.71462891 -9.9609375 2.93359375 C-13.39343532 3.58888879 -16.49169491 4 -20 4 C-19.67 3.01 -19.34 2.02 -19 1 C-12.71461761 -1.79350328 -6.68597876 -0.81241778 0 0 Z " fill="#0F5799" transform="translate(142,163)"/>
<path d="M0 0 C5.80862559 2.39921492 11.40037997 5.1494892 17 8 C17 8.33 17 8.66 17 9 C10.50857435 8.57664615 5.66507011 6.08900201 0 3 C0 2.01 0 1.02 0 0 Z " fill="#11508D" transform="translate(321,239)"/>
<path d="M0 0 C0.66 0 1.32 0 2 0 C2 1.32 2 2.64 2 4 C2.66 4 3.32 4 4 4 C3.49477778 8.37859255 0.82172778 10.81651224 -2 14 C-2.33 13.34 -2.66 12.68 -3 12 C-3.99 11.67 -4.98 11.34 -6 11 C-5.01 10.67 -4.02 10.34 -3 10 C-0.92258495 6.88387743 -0.49975544 3.6648732 0 0 Z " fill="#BEB6A5" transform="translate(434,97)"/>
<path d="M0 0 C1.27230469 0.01804687 2.54460937 0.03609375 3.85546875 0.0546875 C5.31919922 0.08949219 5.31919922 0.08949219 6.8125 0.125 C7.1425 1.775 7.4725 3.425 7.8125 5.125 C6.8225 5.62 6.8225 5.62 5.8125 6.125 C5.8125 5.135 5.8125 4.145 5.8125 3.125 C0.5325 2.795 -4.7475 2.465 -10.1875 2.125 C-6.4507157 -0.36618953 -4.44298181 -0.0815226 0 0 Z " fill="#BDB2A4" transform="translate(382.1875,4.875)"/>
<path d="M0 0 C0 0.66 0 1.32 0 2 C-0.66 2 -1.32 2 -2 2 C-1.67 2.7425 -1.34 3.485 -1 4.25 C0 7 0 7 0 11 C-0.66 11 -1.32 11 -2 11 C-2 10.34 -2 9.68 -2 9 C-2.66 9 -3.32 9 -4 9 C-4.33 9.99 -4.66 10.98 -5 12 C-5.99 11.67 -6.98 11.34 -8 11 C-7.34 11 -6.68 11 -6 11 C-6 9.02 -6 7.04 -6 5 C-5.01 5 -4.02 5 -3 5 C-3 4.01 -3 3.02 -3 2 C-3.66 1.67 -4.32 1.34 -5 1 C-3 0 -3 0 0 0 Z " fill="#F7E4AA" transform="translate(395,71)"/>
<path d="M0 0 C0.99 0.33 1.98 0.66 3 1 C3 1.66 3 2.32 3 3 C0.8828125 4.5078125 0.8828125 4.5078125 -1.875 6.125 C-2.77992187 6.66382813 -3.68484375 7.20265625 -4.6171875 7.7578125 C-7 9 -7 9 -9 9 C-9 7.68 -9 6.36 -9 5 C-8.43410156 4.72285156 -7.86820313 4.44570312 -7.28515625 4.16015625 C-6.55167969 3.79792969 -5.81820312 3.43570313 -5.0625 3.0625 C-3.96615234 2.52302734 -3.96615234 2.52302734 -2.84765625 1.97265625 C-1.03750973 1.13628173 -1.03750973 1.13628173 0 0 Z " fill="#155C9A" transform="translate(68,188)"/>
<path d="M0 0 C3.3 0 6.6 0 10 0 C10 0.66 10 1.32 10 2 C11.32 2.33 12.64 2.66 14 3 C8.06 3 2.12 3 -4 3 C-2.68 2.67 -1.36 2.34 0 2 C0 1.34 0 0.68 0 0 Z " fill="#E69024" transform="translate(381,2)"/>
<path d="M0 0 C0.15082031 0.61875 0.30164063 1.2375 0.45703125 1.875 C0.96842838 3.99581451 0.96842838 3.99581451 1.6875 6 C2.09205762 8.58916878 1.33413341 9.80260379 0 12 C-0.33 11.01 -0.66 10.02 -1 9 C-1.66 8.67 -2.32 8.34 -3 8 C-3.33 9.32 -3.66 10.64 -4 12 C-5.65 12.33 -7.3 12.66 -9 13 C-8.39671875 12.61199219 -7.7934375 12.22398438 -7.171875 11.82421875 C-4.63821823 9.69612934 -3.64475483 7.7957256 -2.25 4.8125 C-1.82203125 3.91144531 -1.3940625 3.01039062 -0.953125 2.08203125 C-0.63859375 1.39496094 -0.3240625 0.70789063 0 0 Z " fill="#F9CB4E" transform="translate(385,66)"/>
<path d="M0 0 C-0.1875 2.3125 -0.1875 2.3125 -1 5 C-3.89548041 7.20970874 -5.33157745 8 -9 8 C-9.66 9.32 -10.32 10.64 -11 12 C-11.66 11.67 -12.32 11.34 -13 11 C-11.6875 9 -11.6875 9 -10 7 C-9.01 7 -8.02 7 -7 7 C-7 6.34 -7 5.68 -7 5 C-6.34 5 -5.68 5 -5 5 C-4.87625 4.360625 -4.7525 3.72125 -4.625 3.0625 C-4.41875 2.381875 -4.2125 1.70125 -4 1 C-2 0 -2 0 0 0 Z " fill="#BDB8AB" transform="translate(404,101)"/>
<path d="M0 0 C0.66 0.33 1.32 0.66 2 1 C0.73809862 4.78570414 -0.54855815 5.21831571 -3.9375 7.1875 C-4.83339844 7.71730469 -5.72929687 8.24710938 -6.65234375 8.79296875 C-9 10 -9 10 -11 10 C-11 9.34 -11 8.68 -11 8 C-10.01 8 -9.02 8 -8 8 C-7.5359375 7.0409375 -7.5359375 7.0409375 -7.0625 6.0625 C-6 4 -6 4 -5 3 C-3.33382885 2.95936168 -1.66611905 2.957279 0 3 C0 2.01 0 1.02 0 0 Z " fill="#175A99" transform="translate(463,223)"/>
<path d="M0 0 C0.66 0 1.32 0 2 0 C2 0.99 2 1.98 2 3 C2.66 3 3.32 3 4 3 C4.33 4.32 4.66 5.64 5 7 C6.32 6.67 7.64 6.34 9 6 C8.45276317 9.37462715 7.9451 11.08235 6 14 C5.67 12.68 5.34 11.36 5 10 C4.34 10 3.68 10 3 10 C3 8.02 3 6.04 3 4 C2.34 4 1.68 4 1 4 C0.67 2.68 0.34 1.36 0 0 Z " fill="#E3A945" transform="translate(440,79)"/>
<path d="M0 0 C0 0.66 0 1.32 0 2 C-0.99 2 -1.98 2 -3 2 C-3 2.99 -3 3.98 -3 5 C-8.625 8 -8.625 8 -12 8 C-11 5 -11 5 -8.125 3.4375 C-7.09375 2.963125 -6.0625 2.48875 -5 2 C-2 0 -2 0 0 0 Z " fill="#064D92" transform="translate(455,229)"/>
<path d="M0 0 C0 1.98 0 3.96 0 6 C-1.9375 6.5625 -1.9375 6.5625 -4 7 C-5 6 -5 6 -5.0625 3.4375 C-5.041875 2.633125 -5.02125 1.82875 -5 1 C-3 0 -3 0 0 0 Z " fill="#F9E29F" transform="translate(402,50)"/>
<path d="M0 0 C1.8125 0.125 1.8125 0.125 4 1 C6.38482838 4.74758745 7.39145737 7.56348311 7 12 C4.34737821 10.67368911 3.78900251 9.14656892 2.375 6.5625 C1.92898437 5.75941406 1.48296875 4.95632812 1.0234375 4.12890625 C0 2 0 2 0 0 Z " fill="#135899" transform="translate(43,167)"/>
<path d="M0 0 C1.65 0.33 3.3 0.66 5 1 C5 1.99 5 2.98 5 4 C3.35 3.67 1.7 3.34 0 3 C0.33 4.98 0.66 6.96 1 9 C0.34 9 -0.32 9 -1 9 C-1.33 9.66 -1.66 10.32 -2 11 C-2 10.34 -2 9.68 -2 9 C-3.32 9 -4.64 9 -6 9 C-5.67 8.34 -5.34 7.68 -5 7 C-3.02 7.495 -3.02 7.495 -1 8 C-1.020625 7.05125 -1.04125 6.1025 -1.0625 5.125 C-1 2 -1 2 0 0 Z " fill="#F8D36C" transform="translate(359,74)"/>
<path d="M0 0 C2.0078125 0.0390625 2.0078125 0.0390625 4.125 0.625 C5.18074219 0.89183594 5.18074219 0.89183594 6.2578125 1.1640625 C6.83273438 1.43992188 7.40765625 1.71578125 8 2 C8.33 2.99 8.66 3.98 9 5 C3.06 4.01 3.06 4.01 -3 3 C-2.01 2.01 -1.02 1.02 0 0 Z " fill="#075093" transform="translate(198,55)"/>
<path d="M0 0 C0.66 0 1.32 0 2 0 C3.32 2.64 4.64 5.28 6 8 C5.01 9.485 5.01 9.485 4 11 C0 4.5 0 4.5 0 0 Z " fill="#125799" transform="translate(34,149)"/>
<path d="M0 0 C0.33 0 0.66 0 1 0 C2.01646402 4.3707953 2.20951146 7.02287937 0 11 C-0.99 11.66 -1.98 12.32 -3 13 C-2.69240822 11.02006459 -2.3787932 9.04106401 -2.0625 7.0625 C-1.88847656 5.96035156 -1.71445312 4.85820313 -1.53515625 3.72265625 C-1 1 -1 1 0 0 Z " fill="#E79531" transform="translate(449,74)"/>
<path d="M0 0 C2.96404505 2.80804268 5.44499019 5.18315774 7 9 C6.01 9.33 5.02 9.66 4 10 C0 4.5 0 4.5 0 0 Z " fill="#E29C3C" transform="translate(435,25)"/>
<path d="M0 0 C0 0.99 0 1.98 0 3 C-0.99 3 -1.98 3 -3 3 C-3.33 4.32 -3.66 5.64 -4 7 C-4.99 7 -5.98 7 -7 7 C-6.67 5.02 -6.34 3.04 -6 1 C-3 0 -3 0 0 0 Z " fill="#FADA82" transform="translate(403,85)"/>
<path d="M0 0 C1.33332095 2.6666419 0.67102033 4.16680303 0 7 C-1.98 7 -3.96 7 -6 7 C-6 6.01 -6 5.02 -6 4 C-5.01 4 -4.02 4 -3 4 C-3 3.01 -3 2.02 -3 1 C-2.01 0.67 -1.02 0.34 0 0 Z " fill="#F8DC8B" transform="translate(412,71)"/>
<path d="M0 0 C3.3 0.33 6.6 0.66 10 1 C10 1.66 10 2.32 10 3 C7.59454362 4.20272819 6.05003047 4.10071472 3.375 4.0625 C2.14910156 4.04896484 2.14910156 4.04896484 0.8984375 4.03515625 C-0.04128906 4.01775391 -0.04128906 4.01775391 -1 4 C0.32 3.67 1.64 3.34 3 3 C3 2.34 3 1.68 3 1 C2.01 0.67 1.02 0.34 0 0 Z " fill="#F9DB86" transform="translate(376,86)"/>
<path d="M0 0 C3.37462715 0.54723683 5.08235 1.0549 8 3 C7.01 3 6.02 3 5 3 C5 4.32 5 5.64 5 7 C4.01 7 3.02 7 2 7 C1.34 4.69 0.68 2.38 0 0 Z " fill="#F8CE54" transform="translate(416,78)"/>
<path d="M0 0 C0 3 0 3 -1.9375 5 C-2.618125 5.66 -3.29875 6.32 -4 7 C-4.33 7.99 -4.66 8.98 -5 10 C-6.98 10.33 -8.96 10.66 -11 11 C-7.33333333 7.33333333 -3.66666667 3.66666667 0 0 Z " fill="#1E609A" transform="translate(444,115)"/>
<path d="M0 0 C0.99 0.33 1.98 0.66 3 1 C2.8125 2.8125 2.8125 2.8125 2 5 C-0.4375 6.8125 -0.4375 6.8125 -3 8 C-3.66 7.67 -4.32 7.34 -5 7 C-3.35 4.69 -1.7 2.38 0 0 Z " fill="#155996" transform="translate(470,84)"/>
<path d="M0 0 C4.42857143 5.14285714 4.42857143 5.14285714 5 9 C4.01 9 3.02 9 2 9 C0.4375 6.1875 0.4375 6.1875 -1 3 C-0.67 2.01 -0.34 1.02 0 0 Z " fill="#145B9B" transform="translate(501,135)"/>
<path d="M0 0 C0.99 0 1.98 0 3 0 C3.33 1.65 3.66 3.3 4 5 C4.99 5.33 5.98 5.66 7 6 C6 8 5 10 4 12 C3.32645501 10.56570999 2.66140299 9.12742943 2 7.6875 C1.62875 6.88699219 1.2575 6.08648437 0.875 5.26171875 C0 3 0 3 0 0 Z " fill="#F4C94F" transform="translate(343,49)"/>
<path d="M0 0 C4.40021656 0.36668471 6.744666 2.11670417 10 5 C2.49230769 4.38461538 2.49230769 4.38461538 0 2.4375 C-0.33 1.963125 -0.66 1.48875 -1 1 C-0.67 0.67 -0.34 0.34 0 0 Z " fill="#196296" transform="translate(327,121)"/>
<path d="M0 0 C-0.66 0.66 -1.32 1.32 -2 2 C-2 2.33 -2 2.66 -2 3 C-5.63 3 -9.26 3 -13 3 C-10.85642985 0.85642985 -9.92072889 0.52040399 -7.0625 -0.1875 C-6.37285156 -0.36667969 -5.68320313 -0.54585937 -4.97265625 -0.73046875 C-3 -1 -3 -1 0 0 Z " fill="#155A99" transform="translate(105,61)"/>
<path d="M0 0 C2.475 0.99 2.475 0.99 5 2 C5 3.98 5 5.96 5 8 C4.01 7.67 3.02 7.34 2 7 C0.8125 3.4375 0.8125 3.4375 0 0 Z " fill="#FCF8E7" transform="translate(347,56)"/>
<path d="M0 0 C1.27875 0.103125 2.5575 0.20625 3.875 0.3125 C4.95394531 0.39951172 4.95394531 0.39951172 6.0546875 0.48828125 C8 1 8 1 10 4 C3.47692308 3.38461538 3.47692308 3.38461538 1.0625 1.4375 C0.711875 0.963125 0.36125 0.48875 0 0 Z " fill="#064D92" transform="translate(341,249)"/>
<path d="M0 0 C0.66 0.33 1.32 0.66 2 1 C1.02471263 2.33617352 0.04466681 3.6688751 -0.9375 5 C-1.48277344 5.7425 -2.02804687 6.485 -2.58984375 7.25 C-3.28787109 8.11625 -3.28787109 8.11625 -4 9 C-4.33 9 -4.66 9 -5 9 C-5.125 6.625 -5.125 6.625 -5 4 C-4.34 3.34 -3.68 2.68 -3 2 C-2.01 2 -1.02 2 0 2 C0 1.34 0 0.68 0 0 Z " fill="#E29C3F" transform="translate(439,103)"/>
<path d="M0 0 C1.65 0 3.3 0 5 0 C5 0.66 5 1.32 5 2 C5.66 2.33 6.32 2.66 7 3 C5.865625 3.12375 4.73125 3.2475 3.5625 3.375 C1.7990625 3.684375 1.7990625 3.684375 0 4 C-0.33 4.66 -0.66 5.32 -1 6 C-0.67 4.02 -0.34 2.04 0 0 Z " fill="#BEB8AA" transform="translate(411,97)"/>
<path d="M0 0 C1.98 0 3.96 0 6 0 C6 0.99 6 1.98 6 3 C4.68 3 3.36 3 2 3 C2 3.66 2 4.32 2 5 C1.01 4.67 0.02 4.34 -1 4 C-0.67 2.68 -0.34 1.36 0 0 Z " fill="#FAE29E" transform="translate(388,87)"/>
<path d="M0 0 C0.99 0.33 1.98 0.66 3 1 C3 1.66 3 2.32 3 3 C-1.47058824 7 -1.47058824 7 -4 7 C-4 6.01 -4 5.02 -4 4 C-3.34 4 -2.68 4 -2 4 C-1.34 2.68 -0.68 1.36 0 0 Z " fill="#1A5C99" transform="translate(503,193)"/>
<path d="M0 0 C1.98 0 3.96 0 6 0 C6 1.98 6 3.96 6 6 C5.01 5.67 4.02 5.34 3 5 C3 4.34 3 3.68 3 3 C2.01 2.67 1.02 2.34 0 2 C0 1.34 0 0.68 0 0 Z " fill="#F9F7EB" transform="translate(413,71)"/>
<path d="M0 0 C1.65 0 3.3 0 5 0 C5 0.66 5 1.32 5 2 C6.32 2 7.64 2 9 2 C8.67 2.99 8.34 3.98 8 5 C8 4.34 8 3.68 8 3 C5.36 3.33 2.72 3.66 0 4 C0 2.68 0 1.36 0 0 Z " fill="#EEBF31" transform="translate(344,40)"/>
<path d="M0 0 C-0.33 0.66 -0.66 1.32 -1 2 C-4.63 1.67 -8.26 1.34 -12 1 C-12 0.67 -12 0.34 -12 0 C-3.42857143 -1.28571429 -3.42857143 -1.28571429 0 0 Z " fill="#1A629F" transform="translate(172,163)"/>
<path d="M0 0 C2.31 0 4.62 0 7 0 C6.01 0.495 6.01 0.495 5 1 C5 1.66 5 2.32 5 3 C2.69 3.33 0.38 3.66 -2 4 C-1.34 2.68 -0.68 1.36 0 0 Z " fill="#E2973D" transform="translate(395,129)"/>
<path d="M0 0 C0.99 0.66 1.98 1.32 3 2 C0.36 4.31 -2.28 6.62 -5 9 C-5 4.61031544 -2.87194899 3.23094261 0 0 Z " fill="#034C92" transform="translate(445,115)"/>
<path d="M0 0 C-2.71182212 2.60334924 -3.89133813 2.99456691 -7.75 3.1875 C-8.8225 3.125625 -9.895 3.06375 -11 3 C-4.23255814 -1.51162791 -4.23255814 -1.51162791 0 0 Z " fill="#145C94" transform="translate(72,72)"/>
<path d="M0 0 C0.99 0 1.98 0 3 0 C2.67 2.31 2.34 4.62 2 7 C1.01 7 0.02 7 -1 7 C-0.67 4.69 -0.34 2.38 0 0 Z " fill="#FAE3A3" transform="translate(389,31)"/>
<path d="M0 0 C1.32 0.33 2.64 0.66 4 1 C1.36 2.65 -1.28 4.3 -4 6 C-3 2 -3 2 0 0 Z " fill="#2467A5" transform="translate(470,219)"/>
<path d="M0 0 C0.144375 0.639375 0.28875 1.27875 0.4375 1.9375 C0.81007181 3.97545146 0.81007181 3.97545146 2 5 C2.04080783 6.99958364 2.04254356 9.00045254 2 11 C1.34 11 0.68 11 0 11 C-1.125 3.375 -1.125 3.375 0 0 Z " fill="#FAF4E0" transform="translate(387,71)"/>
<path d="M0 0 C-2.66559313 1.77706209 -5.0280615 2.87548273 -8 4 C-8 2.68 -8 1.36 -8 0 C-4.71023192 -1.09658936 -3.28696233 -0.79953138 0 0 Z " fill="#175B98" transform="translate(105,173)"/>
<path d="M0 0 C0.66 0.33 1.32 0.66 2 1 C-0.52788007 3.79872437 -2.20411134 5.45773019 -6 6 C-4.98545548 3.4636387 -4.3146444 2.20648539 -2 0.6875 C-1.34 0.460625 -0.68 0.23375 0 0 Z " fill="#125A98" transform="translate(414,137)"/>
<path d="M0 0 C-0.66 0 -1.32 0 -2 0 C-2 0.66 -2 1.32 -2 2 C-3.8125 2.625 -3.8125 2.625 -6 3 C-6.99 2.34 -7.98 1.68 -9 1 C-5.57367167 -0.61798838 -3.61944899 -1.34053666 0 0 Z " fill="#165C94" transform="translate(86,67)"/>
<path d="M0 0 C2.31 0.33 4.62 0.66 7 1 C6.01 1.33 5.02 1.66 4 2 C3.67 2.66 3.34 3.32 3 4 C1.68 3.67 0.36 3.34 -1 3 C-0.67 2.01 -0.34 1.02 0 0 Z " fill="#14599B" transform="translate(213,59)"/>
<path d="M0 0 C-0.33 0.99 -0.66 1.98 -1 3 C-4.3 2.67 -7.6 2.34 -11 2 C-11 1.67 -11 1.34 -11 1 C-9.54182203 0.83197949 -8.0834516 0.66562857 -6.625 0.5 C-5.81289062 0.4071875 -5.00078125 0.314375 -4.1640625 0.21875 C-2 0 -2 0 0 0 Z " fill="#12599B" transform="translate(151,52)"/>
<path d="M0 0 C2.35981813 0.93578995 4.69631264 1.93347808 7 3 C7 3.33 7 3.66 7 4 C0.25 3.25 0.25 3.25 -2 1 C-1.34 0.67 -0.68 0.34 0 0 Z " fill="#034C92" transform="translate(331,244)"/>
<path d="M0 0 C1.32 0.33 2.64 0.66 4 1 C4.33 2.32 4.66 3.64 5 5 C3.68 4.67 2.36 4.34 1 4 C0.67 2.68 0.34 1.36 0 0 Z " fill="#155B99" transform="translate(485,111)"/>
<path d="M0 0 C1.32 0.33 2.64 0.66 4 1 C3.01 1 2.02 1 1 1 C0.773125 1.639375 0.54625 2.27875 0.3125 2.9375 C-1 5 -1 5 -3.625 5.75 C-4.800625 5.87375 -4.800625 5.87375 -6 6 C-5.01 5.67 -4.02 5.34 -3 5 C-2.67 4.01 -2.34 3.02 -2 2 C-1.34 2 -0.68 2 0 2 C0 1.34 0 0.68 0 0 Z " fill="#EBBE37" transform="translate(393,107)"/>
<path d="M0 0 C2.0625 2.3125 2.0625 2.3125 4 5 C3.67 5.99 3.34 6.98 3 8 C2.34 8 1.68 8 1 8 C-0.35439668 5.29120665 -0.06501451 2.99066732 0 0 Z " fill="#DA9B37" transform="translate(331,98)"/>
<path d="M0 0 C2.91517292 1.07401108 4.77810176 1.77810176 7 4 C5.02 4 3.04 4 1 4 C0.67 2.68 0.34 1.36 0 0 Z " fill="#226BA8" transform="translate(280,89)"/>
<path d="M0 0 C-1.32 1.32 -2.64 2.64 -4 4 C-5.32 3.34 -6.64 2.68 -8 2 C-7.34 2 -6.68 2 -6 2 C-6 1.34 -6 0.68 -6 0 C-3.50907189 -1.24546405 -2.58919267 -0.7767578 0 0 Z " fill="#ECBE34" transform="translate(441,86)"/>
<path d="M0 0 C0 0.33 0 0.66 0 1 C-3.63 1 -7.26 1 -11 1 C-11 0.67 -11 0.34 -11 0 C-6.53464227 -1.86921951 -4.33629181 -2.2956839 0 0 Z " fill="#044D93" transform="translate(187,55)"/>
</svg>
